<svg version="1.1" xmlns="http://www.w3.org/2000/svg" xmlns:xlink="http://www.w3.org/1999/xlink" width="137.33334" height="104.16667" viewBox="0,0,137.33334,104.16667"><g transform="translate(-251.33335,-127.91669)"><g stroke-miterlimit="10"><path d="M296.89932,185.44847c3.87332,-2.73052 9.82409,-8.1253 13.66047,-14.7807c3.01138,-5.22419 3.91455,-11.48135 6.90844,-16.11172c1.7107,-2.64578 5.53854,-7.49252 10.23892,-10.23581c1.48894,-0.86899 15.00535,-6.08734 22.23398,-2.82315c14.09731,6.36583 25.402,24.80617 24.90618,29.26982c-0.42059,3.78637 -5.4993,9.98276 -10.74449,17.50573c-2.7121,3.88987 -3.65702,9.56337 -6.86791,13.49002c-5.0493,6.17487 -12.75197,10.27756 -19.208,13.49909c-18.31297,9.13809 -37.76717,1.12193 -43.15404,-0.42581c-7.12867,-2.04819 -29.73589,-17.7348 -29.73589,-17.7348c0,0 25.86051,-7.49214 31.76235,-11.65267z" fill="#fff6da" stroke="none" stroke-width="0.5"/><path d="M251.33336,232.08337v-104.16667h137.33334v104.16667z" fill="none" stroke="#000000" stroke-width="0"/><path d="M317.93314,223.54555c-13.1097,0 -26.98512,-3.58591 -37.52993,-9.75571c-10.69781,-6.2597 -17.66865,-11.90717 -21.63267,-15.54254c-1.42959,-1.31143 -1.52607,-3.53354 -0.21463,-4.96313c1.31022,-1.42935 3.53305,-1.52631 4.96312,-0.21463c3.71187,3.40392 10.27001,8.70983 20.43233,14.65672c17.83651,10.43641 52.75698,15.38881 71.06344,-7.12701c3.53499,-4.34676 4.90563,-7.8798 6.35666,-11.62066c1.92926,-4.97336 4.0795,-10.51753 11.22745,-18.08671c-0.91359,-0.61467 -1.69514,-1.37063 -2.17045,-2.29519c-0.28845,-0.5618 -0.60273,-1.19644 -0.94527,-1.88956c-4.01518,-8.11734 -11.48813,-23.22696 -28.81205,-23.22696c-9.32718,0 -17.35973,5.99318 -23.87451,17.81215c-0.93649,1.69904 -3.07431,2.31712 -4.77213,1.38087c-1.69904,-0.9365 -2.31736,-3.07333 -1.38086,-4.77213c7.84399,-14.23086 17.94687,-21.44654 30.02725,-21.44654c9.40344,0 17.57608,3.554 24.29257,10.5626c5.41213,5.6482 8.66452,12.22388 10.81694,16.57502c0.26385,0.5333 0.50942,1.03029 0.73916,1.48343c0.58275,0.37908 2.09371,0.91019 3.11012,1.14017c1.27051,0.28724 2.27765,1.25417 2.61701,2.51152c0.33937,1.25759 -0.04556,2.59973 -0.99984,3.48725c-9.13033,8.49008 -11.16825,13.74337 -13.32604,19.30483c-1.5838,4.08364 -3.22218,8.3064 -7.45541,13.51217c-11.87599,14.60653 -28.49145,18.11181 -40.33941,18.48041c-0.72697,0.02241 -1.45931,0.03362 -2.19286,0.03362z" fill="#ffc61b" stroke="none" stroke-width="1"/><path d="M351.42279,170.50401h-2.81021c-1.93974,0 -3.51283,-1.5726 -3.51283,-3.51283c0,-1.94023 1.57309,-3.51283 3.51283,-3.51283h2.81021c1.93974,0 3.51283,1.5726 3.51283,3.51283c0,1.94023 -1.57285,3.51283 -3.51283,3.51283z" fill="#ffc61b" stroke="none" stroke-width="1"/><path d="M260.45439,199.19509c-1.90202,-0.38195 -3.13493,-2.23317 -2.75297,-4.1352c0.38103,-1.90119 2.23262,-3.42996 4.13519,-3.04805c5.04507,0.34786 44.06875,-3.07884 48.07513,-31.81971c0.77418,-5.54898 7.99191,-5.56782 7.06503,1.07756c-1.15392,8.27758 -4.1193,13.55365 -7.45397,17.78355c-4.17656,5.29781 -9.17615,8.77174 -14.70651,12.35759c-9.94596,6.44887 -29.08841,8.84246 -34.36189,7.78425z" fill="#ffc61b" stroke="none" stroke-width="1"/></g></g></svg>