<svg version="1.1" xmlns="http://www.w3.org/2000/svg" xmlns:xlink="http://www.w3.org/1999/xlink" width="87.83334" height="78.5" viewBox="0,0,87.83334,78.5"><g transform="translate(-250.32993,-130.93888)"><g stroke-miterlimit="10"><path d="M250.32993,209.43888v-78.5h87.83334v78.5z" fill="none" stroke="#000000" stroke-width="0"/><path d="M263.41692,146.62827c0,0 28.22175,-8.32758 45.67138,4.68442c9.19635,6.85755 13.56528,18.27406 15.64096,27.53936c1.91172,8.53345 -4.2113,16.74458 -12.93575,17.34707c-9.47213,0.65413 -21.66093,-0.27651 -30.85729,-7.13406c-17.44939,-13.012 -17.51931,-42.43678 -17.51931,-42.43678z" fill="#fee187" stroke="none" stroke-width="1"/><path d="M306.82503,199.88687c-0.00073,0 -0.00146,0 -0.00219,0c-11.4472,0 -20.86306,-2.69351 -27.98641,-8.00551c-18.64389,-13.90294 -18.92941,-43.97113 -18.93234,-45.24456c-0.0039,-1.55993 1.02176,-2.93592 2.51835,-3.37761c0.38322,-0.11304 9.50941,-2.76831 20.77877,-2.76831c11.44671,0 20.86306,2.69351 27.98665,8.006c10.26148,7.65177 14.89182,20.31344 16.9692,29.58775c1.13529,5.06788 0.00878,10.35844 -3.09086,14.51541c-3.09964,4.15697 -7.84935,6.74622 -13.03077,7.10386c-1.76043,0.12157 -3.51332,0.18296 -5.21041,0.18296zM267.0596,149.34152c0.52087,7.28487 3.11548,27.31717 15.97644,36.90771c5.88354,4.38744 13.88662,6.61222 23.7868,6.61222c0.00025,0 0.00097,0 0.00146,0c1.53654,0 3.12668,-0.05579 4.72754,-0.16639c3.13545,-0.21683 6.00828,-1.78212 7.882,-4.29511c1.87372,-2.51274 2.55441,-5.71325 1.86739,-8.77975c-1.81817,-8.11563 -5.77683,-19.12578 -14.31321,-25.49121c-5.88378,-4.38793 -13.88711,-6.61246 -23.78705,-6.61246c-6.79933,-0.00025 -12.83976,1.08948 -16.14137,1.82499z" fill="#ffc61b" stroke="none" stroke-width="1"/><path d="M306.82503,199.88687c-0.00073,0 -0.00146,0 -0.00219,0c-11.4472,0 -20.86306,-2.69351 -27.98641,-8.00551c-18.64389,-13.90294 -18.92941,-43.97113 -18.93234,-45.24456c-0.0039,-1.55993 1.02176,-2.93592 2.51835,-3.37761c0.38322,-0.11304 9.50941,-2.76831 20.77877,-2.76831c11.44671,0 20.86306,2.69351 27.98665,8.006c10.26148,7.65177 14.89182,20.31344 16.9692,29.58775c1.13529,5.06788 0.00878,10.35844 -3.09086,14.51541c-3.09964,4.15697 -7.84935,6.74622 -13.03077,7.10386c-1.76043,0.12157 -3.51332,0.18296 -5.21041,0.18296zM267.0596,149.34152c0.52087,7.28487 3.11548,27.31717 15.97644,36.90771c5.88354,4.38744 13.88662,6.61222 23.7868,6.61222c0.00025,0 0.00097,0 0.00146,0c1.53654,0 3.12668,-0.05579 4.72754,-0.16639c3.13545,-0.21683 6.00828,-1.78212 7.882,-4.29511c1.87372,-2.51274 2.55441,-5.71325 1.86739,-8.77975c-1.81817,-8.11563 -5.77683,-19.12578 -14.31321,-25.49121c-5.88378,-4.38793 -13.88711,-6.61246 -23.78705,-6.61246c-6.79933,-0.00025 -12.83976,1.08948 -16.14137,1.82499z" fill="#ffc61b" stroke="none" stroke-width="1"/></g></g></svg>