<svg version="1.1" xmlns="http://www.w3.org/2000/svg" xmlns:xlink="http://www.w3.org/1999/xlink" width="94.51088" height="94.51089" viewBox="0,0,94.51088,94.51089"><defs><radialGradient cx="320.00001" cy="180" r="47.2535" gradientUnits="userSpaceOnUse" id="color-1"><stop offset="0" stop-color="#f4ff56" stop-opacity="0.6549"/><stop offset="1" stop-color="#f4ff56" stop-opacity="0"/></radialGradient></defs><g transform="translate(-272.74456,-132.74456)"><g stroke="none" stroke-miterlimit="10"><g><path d="M367.13867,176.70787c1.8182,26.03398 -17.81257,48.61262 -43.84654,50.4308c-26.03398,1.81819 -48.61261,-17.81258 -50.4308,-43.84655c-1.8182,-26.03398 17.81258,-48.61261 43.84654,-50.4308c26.03398,-1.81819 48.61261,17.81257 50.43079,43.84654z" fill="url(#color-1)" fill-rule="nonzero" stroke-width="0.5"/><path d="M298.61529,189.66365l0.02062,-23.8016l42.74884,0.04124l-0.02062,23.79747zM298.61529,189.66365" fill="#ffffff" fill-rule="nonzero" stroke-width="1"/><path d="M325.66274,159.3291c10.64493,0.01238 15.96947,0.01649 19.27306,3.32422c3.3036,3.31185 3.3036,4.81723 3.29535,15.46217c-0.01237,10.64493 -0.0165,15.96947 -3.32834,19.27306c-3.30773,3.3036 -8.63225,3.29947 -19.27719,3.29123l-11.29246,-0.01237c-10.64493,-0.00825 -15.96947,-0.01237 -19.27306,-3.32422c-3.3036,-3.31185 -3.29948,-8.63225 -3.29123,-19.28131c0.01238,-10.64493 0.01238,-12.15032 3.32422,-15.45392c3.30772,-3.3036 8.63225,-3.29947 19.27719,-3.2871zM304.42649,168.97594c-0.89911,-0.75063 -2.2354,-0.63102 -2.9819,0.26808c-0.75063,0.89911 -0.63102,2.23127 0.26808,2.98191l6.19477,5.17193c2.49935,2.08692 4.52853,3.78202 6.31437,4.93272c1.86421,1.20019 3.67891,1.96319 5.77409,1.96319c2.09105,0 3.90575,-0.75476 5.77408,-1.95081c1.78996,-1.1507 3.81914,-2.83755 6.32262,-4.92034l6.20715,-5.16368c0.8991,-0.74651 1.01871,-2.0828 0.27221,-2.9819c-0.74651,-0.89911 -2.0828,-1.01871 -2.98191,-0.27221l-6.0999,5.07294c-2.63545,2.19415 -4.46254,3.70778 -6.00918,4.70175c-1.49713,0.95685 -2.5076,1.27854 -3.48507,1.27854c-0.97334,0 -1.98381,-0.3217 -3.47682,-1.2868c-1.54663,-0.99397 -3.37372,-2.51585 -6.00504,-4.71zM304.42649,168.97594" fill="#ffc500" fill-rule="evenodd" stroke-width="1"/><path d="M304.45536,168.98831l6.09166,5.07707c2.63546,2.19828 4.45017,3.68716 5.99267,4.68113c1.49714,0.9651 2.48286,1.27855 3.45621,1.27855c0.97334,0 1.96319,-0.30932 3.45621,-1.26618c1.54663,-0.99397 3.36958,-2.48285 6.00504,-4.67701l6.09991,-5.0647c0.8991,-0.74651 2.30138,-0.64752 3.04789,0.25159c0.74651,0.8991 0.6269,2.2354 -0.27221,2.98602l-6.20714,5.17193c-2.50348,2.0828 -4.54503,3.79027 -6.33499,4.94096c-1.8642,1.19605 -3.70367,1.96319 -5.79471,1.95907c-2.09104,0 -3.9305,-0.76713 -5.79471,-1.96731c-1.78997,-1.15482 -3.82739,-2.86642 -6.32674,-4.95746l-6.19477,-5.1843c-0.89911,-0.74651 -1.01871,-2.08692 -0.26808,-2.98602c0.75063,-0.89498 2.0828,-1.01871 2.98191,-0.26808zM304.45536,168.98831" fill="#fff6da" fill-rule="nonzero" stroke-width="1"/></g></g></g></svg>