<svg version="1.1" xmlns="http://www.w3.org/2000/svg" xmlns:xlink="http://www.w3.org/1999/xlink" width="363.91272" height="177.97407" viewBox="0,0,363.91272,177.97407"><defs><radialGradient cx="351.02514" cy="204.09544" r="49.5934" gradientUnits="userSpaceOnUse" id="color-1"><stop offset="0" stop-color="#f4ff56" stop-opacity="0.6549"/><stop offset="1" stop-color="#f4ff56" stop-opacity="0"/></radialGradient><radialGradient cx="249.264" cy="139.3343" r="28.66087" gradientUnits="userSpaceOnUse" id="color-2"><stop offset="0" stop-color="#f4ff56" stop-opacity="0.6549"/><stop offset="1" stop-color="#f4ff56" stop-opacity="0"/></radialGradient></defs><g transform="translate(-220.59831,-110.66861)"><g stroke-miterlimit="10"><g><path d="M400.49802,200.6403c1.90823,27.32313 -18.69461,51.01982 -46.01774,52.92804c-27.32313,1.90822 -51.01981,-18.69463 -52.92804,-46.01775c-1.90823,-27.32313 18.69462,-51.01981 46.01774,-52.92804c27.32313,-1.90822 51.01981,18.69461 52.92803,46.01774z" fill="url(#color-1)" fill-rule="nonzero" stroke="none" stroke-width="0.5"/><g><path d="M329.99696,215.45007l-1.68856,-24.17782l43.43052,-3.03314l1.68856,24.17782z" fill="#ffffff" fill-rule="nonzero" stroke="#000000" stroke-width="0"/><path d="M355.2941,182.69178c10.81558,-0.75535 16.22333,-1.13303 19.81798,1.99228c3.59462,3.12534 3.70128,4.6527 4.45664,15.46828c0.75534,10.81546 1.13304,16.22349 -1.99228,19.81789c-3.12532,3.5947 -8.53309,3.97236 -19.34866,4.72772l-11.47164,0.80117c-10.81547,0.75535 -16.22348,1.13304 -19.81789,-1.99236c-3.59468,-3.12509 -3.97238,-8.53311 -4.72772,-19.34857c-0.75536,-10.81558 -0.86203,-12.34296 2.26336,-15.9376c3.12509,-3.5946 8.53311,-3.9723 19.34857,-4.72764zM334.41349,194.01719c-0.96569,-0.69675 -2.31331,-0.47873 -3.01014,0.48698c-0.69655,0.9657 -0.47849,2.31337 0.48719,3.01015l6.6657,4.80958c2.69004,1.94071 4.87027,3.51383 6.77049,4.55636c1.97935,1.086 3.87775,1.72691 6.00315,1.57849c2.12541,-0.14844 3.91629,-1.04701 5.72552,-2.3976c1.73674,-1.29653 3.67716,-3.15744 6.0712,-5.45321l5.93274,-5.68945c0.85948,-0.82424 0.88806,-2.18915 0.06383,-3.04863c-0.82425,-0.85949 -2.18916,-0.88806 -3.04864,-0.06384l-5.83116,5.59201c-2.51992,2.41664 -4.26973,4.0893 -5.76775,5.20748c-1.44979,1.08254 -2.45648,1.48225 -3.44619,1.55137c-0.98971,0.06912 -2.04219,-0.18678 -3.62837,-1.05729c-1.6389,-0.89911 -3.6042,-2.31232 -6.43569,-4.35521l-6.55187,-4.72718z" fill="#ffc500" fill-rule="evenodd" stroke="none" stroke-width="1"/><path d="M334.4462,194.02916l6.55376,4.71928c2.83148,2.04289 4.78562,3.42628 6.42451,4.32539c1.58618,0.87051 2.60991,1.11777 3.59962,1.04865c0.98971,-0.06912 1.97283,-0.45383 3.42262,-1.53637c1.49802,-1.11818 3.24294,-2.76308 5.76286,-5.17972l5.83396,-5.58452c0.85948,-0.82422 2.28744,-0.82512 3.11169,0.03437c0.82423,0.85948 0.79727,2.22914 -0.06221,3.05338l-5.93166,5.70039c-2.39404,2.29577 -4.3437,4.17829 -6.08044,5.47482c-1.80923,1.35059 -3.62172,2.26007 -5.74713,2.40851c-2.12541,0.14843 -4.04796,-0.49876 -6.0273,-1.58476c-1.90022,-1.04253 -4.09427,-2.63682 -6.78431,-4.57753l-6.66618,-4.8211c-0.96567,-0.69678 -1.1827,-2.04953 -0.48615,-3.01523c0.69683,-0.96571 2.04527,-1.18624 3.01095,-0.48949z" fill="#fff6da" fill-rule="nonzero" stroke="none" stroke-width="0.5"/></g></g><g><path d="M244.26524,167.55589c-15.58635,-2.76074 -25.98357,-17.63399 -23.22282,-33.22035c2.76074,-15.58635 17.63399,-25.98357 33.22035,-23.22282c15.58635,2.76075 25.98355,17.63399 23.22282,33.22035c-2.76074,15.58635 -17.63398,25.98356 -33.22034,23.22283z" fill="url(#color-2)" fill-rule="nonzero" stroke="none" stroke-width="0.5"/><g><path d="M235.88258,142.75225l2.44294,-13.79213l24.77475,4.38824l-2.44294,13.79212z" fill="#ffffff" fill-rule="nonzero" stroke="#000000" stroke-width="0"/><path d="M254.65814,127.93274c6.16969,1.09281 9.25453,1.63921 10.83172,3.89538c1.57718,2.25618 1.42284,3.12746 0.33004,9.29716c-1.0928,6.16963 -1.63923,9.25462 -3.89538,10.83168c-2.25619,1.57723 -5.34102,1.03082 -11.51072,-0.06199l-6.54394,-1.15909c-6.16963,-1.0928 -9.25462,-1.63923 -10.83166,-3.89542c-1.57725,-2.25606 -1.03083,-5.34104 0.06197,-11.51067c1.0928,-6.1697 1.24714,-7.04098 3.50335,-8.61817c2.25604,-1.57719 5.34103,-1.03077 11.51066,0.06203l6.54395,1.1591zM239.60762,131.20602c-0.52591,0.44377 -0.59259,1.22991 -0.14887,1.75595l3.06287,3.63102c1.23611,1.4652 2.23792,2.65284 3.15713,3.50374c0.95747,0.88637 1.93196,1.51184 3.14439,1.7266c1.21242,0.21475 2.34247,-0.03796 3.54617,-0.54153c1.15548,-0.48342 2.50428,-1.25471 4.16837,-2.20621l4.12385,-2.35807c0.59742,-0.34162 0.8048,-1.10285 0.46319,-1.70028c-0.34162,-0.59743 -1.10285,-0.8048 -1.70027,-0.4632l-4.05325,2.31768c-1.7516,1.00162 -2.96715,1.69409 -3.96379,2.11098c-0.96459,0.40367 -1.58504,0.48664 -2.14962,0.38664c-0.56457,-0.10001 -1.11878,-0.39103 -1.88603,-1.10146c-0.7928,-0.73386 -1.69653,-1.8017 -2.99761,-3.34402l-3.0106,-3.56887c-0.44374,-0.52602 -1.22985,-0.59271 -1.75592,-0.14897z" fill="#ffc500" fill-rule="evenodd" stroke="none" stroke-width="1"/><path d="M239.57635,131.19071c0.52607,-0.44374 1.37372,-0.34449 1.81745,0.18153l3.0141,3.56018c1.30108,1.54232 2.20023,2.5826 2.99303,3.31646c0.76725,0.71043 1.30311,0.98738 1.86768,1.08738c0.56457,0.10001 1.1597,0.01847 2.1243,-0.3852c0.99664,-0.4169 2.192,-1.08085 3.9436,-2.08247l4.05379,-2.30766c0.59742,-0.3416 1.42733,-0.1455 1.76895,0.45193c0.34161,0.59742 0.1345,1.36409 -0.46293,1.70571l-4.12659,2.37059c-1.66408,0.9515 -3.03095,1.74112 -4.18643,2.22453c-1.2037,0.50357 -2.35649,0.75811 -3.56892,0.54335c-1.21242,-0.21475 -2.20522,-0.852 -3.16269,-1.73836c-0.9192,-0.8509 -1.92879,-2.05964 -3.1649,-3.52484l-3.06123,-3.64247c-0.44372,-0.52604 -0.37514,-1.31688 0.15076,-1.76065z" fill="#fff6da" fill-rule="nonzero" stroke="none" stroke-width="0.5"/></g></g><g fill-rule="nonzero" stroke="none"><path d="M542.61487,251.76442c5.81808,5.04112 32.45365,15.7391 32.45365,15.7391c0,0 -25.64975,14.23568 -33.42955,15.65019c-5.87892,1.06889 -27.36819,7.50324 -45.8224,-4.13801c-6.50582,-4.10398 -14.24033,-9.27528 -18.93983,-16.3625c-2.98843,-4.50681 -3.38739,-10.62568 -5.85063,-15.04044c-4.7639,-8.5381 -9.49227,-15.65128 -9.53572,-19.71254c-0.05122,-4.7877 13.90184,-23.14658 29.53309,-28.40002c8.01519,-2.69379 21.79817,4.27929 23.28519,5.35946c4.69432,3.40997 8.23936,8.95842 9.77264,11.94696c2.68341,5.23024 2.97598,11.96378 5.61479,17.8258c3.36173,7.46796 9.10043,13.82358 12.91878,17.13201z" fill="#fff6da" stroke-width="0.5"/><path d="M516.33917,288.2867c-0.76431,-0.07336 -1.52626,-0.15827 -2.28148,-0.25431c-12.30805,-1.56889 -29.26988,-6.88278 -40.18328,-23.2896c-3.8902,-5.84745 -5.175,-10.41117 -6.41686,-14.82449c-1.69214,-6.01052 -3.29019,-11.68794 -11.95444,-21.44719c-0.90555,-1.02019 -1.17242,-2.4571 -0.69304,-3.73351c0.47933,-1.27615 1.62541,-2.18291 2.97793,-2.35514c1.08204,-0.13798 2.7095,-0.54027 3.35459,-0.87698c0.28469,-0.44917 0.59025,-0.94245 0.91851,-1.47174c2.67784,-4.3184 6.72423,-10.84463 12.92819,-16.1885c7.69908,-6.63091 16.56992,-9.51669 26.36778,-8.5763c12.58708,1.20808 22.39212,9.73673 29.14198,25.34889c0.80589,1.8637 -0.05206,4.02833 -1.91601,4.8342c-1.86266,0.80573 -4.02834,-0.05206 -4.83421,-1.91601c-5.60611,-12.9662 -13.37623,-20.01403 -23.09462,-20.94677c-18.05054,-1.73244 -27.34794,13.26361 -32.34329,21.31988c-0.42622,0.68793 -0.81715,1.31777 -1.17389,1.87429c-0.5877,0.91581 -1.47763,1.62532 -2.49101,2.17442c6.69082,8.60147 8.37682,14.59322 9.88964,19.96811c1.13779,4.04287 2.2126,7.86117 5.46118,12.74375c16.82266,25.29092 53.70308,23.62293 73.33138,14.53249c11.18327,-5.18006 18.54709,-10.05269 22.75505,-13.22818c1.62123,-1.22369 3.9276,-0.90037 5.14983,0.71995c1.22349,1.6207 0.90075,3.92636 -0.71995,5.14985c-4.49383,3.39144 -12.32183,8.57867 -24.09432,14.03112c-11.60409,5.37407 -26.42009,7.72281 -40.07966,6.4118z" fill="#ffc61b" stroke-width="1"/><path d="M486.74914,229.67138c-2.02135,-0.194 -3.50292,-1.98987 -3.30888,-4.01147c0.19403,-2.02161 1.99036,-3.50284 4.01146,-3.30887l2.92808,0.28102c2.0211,0.19398 3.50291,1.98986 3.30889,4.01146c-0.19403,2.02161 -1.99036,3.50285 -4.01147,3.30887z" fill="#ffc61b" stroke-width="1"/><path d="M543.63917,257.11591c-5.40372,-4.2893 -10.26561,-8.40892 -14.08756,-14.3466c-3.05154,-4.74081 -5.61366,-10.5347 -5.9882,-19.27488c-0.3012,-7.01681 7.21739,-6.27537 7.46913,-0.41623c1.30024,30.34702 41.61804,37.81993 46.90949,37.96199c2.02055,-0.20767 3.79693,1.5704 4.00382,3.58943c0.20777,2.02002 -1.26197,3.82557 -3.28197,4.03334c-5.60048,0.57523 -25.30648,-3.83305 -35.0247,-11.54705z" fill="#ffc61b" stroke-width="1"/><path d="M580.83391,213.59507c0,0 -3.01543,30.65197 -22.49794,42.46474c-10.26787,6.22552 -23.06096,5.97627 -32.86498,4.34748c-9.03014,-1.50023 -14.58884,-10.66809 -11.74357,-19.36829c3.08931,-9.44635 8.78317,-20.9048 19.05101,-27.13032c19.48277,-11.81277 48.05545,-0.31364 48.05545,-0.31364z" fill="#fee187" stroke-width="1"/><path d="M530.2791,264.74654c-1.76828,-0.1697 -3.58855,-0.40898 -5.41067,-0.71169c-5.36299,-0.8908 -10.05298,-4.06363 -12.86693,-8.70494c-2.81394,-4.64129 -3.45862,-10.26641 -1.76891,-15.43333c3.09197,-9.45555 9.18272,-22.18526 20.6398,-29.13178c7.95365,-4.82294 18.03431,-6.68775 29.96115,-5.54305c11.74203,1.12697 20.98547,4.80626 21.37346,4.96236c1.51519,0.60988 2.44628,2.14615 2.28622,3.77113c-0.1304,1.32655 -3.4348,32.62735 -24.25102,45.24897c-7.95334,4.82245 -18.0335,6.68732 -29.96083,5.54256c-0.00077,-0.00007 -0.00153,-0.00015 -0.00228,-0.00022zM576.76711,216.05783c-3.36654,-1.09653 -9.55133,-2.83602 -16.63589,-3.51572c-10.31518,-0.99002 -18.87665,0.52746 -25.44603,4.51103c-9.531,5.77875 -14.75673,16.85482 -17.46275,25.12904c-1.0225,3.12642 -0.63331,6.52924 1.06771,9.33474c1.701,2.80577 4.53779,4.72401 7.78308,5.26348c1.65695,0.27534 3.30821,0.49249 4.90919,0.64614c0.00051,0.00005 0.00125,0.00012 0.00152,0.00015c10.31542,0.99005 18.87668,-0.52771 25.44575,-4.51081c14.35947,-8.70667 19.0662,-29.31972 20.33742,-36.85805z" fill="#ffc61b" stroke-width="1"/><path d="M530.2791,264.74654c-1.76828,-0.1697 -3.58855,-0.40898 -5.41067,-0.71169c-5.36299,-0.8908 -10.05298,-4.06363 -12.86693,-8.70494c-2.81394,-4.64129 -3.45862,-10.26641 -1.76891,-15.43333c3.09197,-9.45555 9.18272,-22.18526 20.6398,-29.13178c7.95365,-4.82294 18.03431,-6.68775 29.96115,-5.54305c11.74203,1.12697 20.98547,4.80626 21.37346,4.96236c1.51519,0.60988 2.44628,2.14615 2.28622,3.77113c-0.1304,1.32655 -3.4348,32.62735 -24.25102,45.24897c-7.95334,4.82245 -18.0335,6.68732 -29.96083,5.54256c-0.00077,-0.00007 -0.00153,-0.00015 -0.00228,-0.00022zM576.76711,216.05783c-3.36654,-1.09653 -9.55133,-2.83602 -16.63589,-3.51572c-10.31518,-0.99002 -18.87665,0.52746 -25.44603,4.51103c-9.531,5.77875 -14.75673,16.85482 -17.46275,25.12904c-1.0225,3.12642 -0.63331,6.52924 1.06771,9.33474c1.701,2.80577 4.53779,4.72401 7.78308,5.26348c1.65695,0.27534 3.30821,0.49249 4.90919,0.64614c0.00051,0.00005 0.00125,0.00012 0.00152,0.00015c10.31542,0.99005 18.87668,-0.52771 25.44575,-4.51081c14.35947,-8.70667 19.0662,-29.31972 20.33742,-36.85805z" fill="#ffc61b" stroke-width="1"/></g></g></g></svg>