<svg version="1.1" xmlns="http://www.w3.org/2000/svg" xmlns:xlink="http://www.w3.org/1999/xlink" width="711.948" height="421.89511" viewBox="0,0,711.948,421.89511"><g transform="translate(35.97447,30.94767)"><g stroke-miterlimit="10"><path d="M-35.97447,390.94745v-421.89511h711.948v421.89511z" fill-opacity="0.39608" fill="#000000" stroke="#000000" stroke-width="0"/><g fill="#ffc500" stroke="#000000" stroke-width="0"><path d="M132,259.5c0,0 0,-116.39657 0,-141.10105c0,-8.79882 7.4737,-17.89895 16.40843,-17.89895c42.03855,0 359.59157,0 359.59157,0c0,0 0,82.54083 0,111.8952c0,19.04582 -24.76407,47.1048 -47.84813,47.1048c-60.4529,0 -328.15187,0 -328.15187,0z"/><path d="M508,100.5c0,0 0,116.39657 0,141.10105c0,8.79882 -7.4737,17.89895 -16.40842,17.89895c-42.03856,0 -359.59157,0 -359.59157,0c0,0 0,-82.54083 0,-111.89519c0,-19.04582 24.76407,-47.1048 47.84814,-47.1048c60.4529,0 328.15187,0 328.15187,0z"/></g><text transform="translate(179.5462,148.15916) scale(0.30664,0.30664)" font-size="40" xml:space="preserve" fill="#fff6da" stroke="none" stroke-width="1" font-family="&quot;Ubuntu-Bold&quot;, Sans Serif" font-weight="normal" text-anchor="start"><tspan x="0" dy="0">You can play our game for free and without ads,</tspan><tspan x="0" dy="46.150000000000006px"> you can join our Community. You can donate via </tspan><tspan x="0" dy="46.150000000000006px">"Buy me a Coffee" and provide financial support</tspan><tspan x="0" dy="46.150000000000006px">via external ads by playing via "Yandex Games".</tspan><tspan x="0" dy="46.150000000000006px">All Donations and Ad revenues will be sent to</tspan><tspan x="0" dy="46.150000000000006px">Charities.</tspan></text></g></g></svg>