<svg version="1.1" xmlns="http://www.w3.org/2000/svg" xmlns:xlink="http://www.w3.org/1999/xlink" width="640.04858" height="395.78994" viewBox="0,0,640.04858,395.78994"><g transform="translate(0,35.78993)"><g stroke-miterlimit="10"><path d="M0,360v-359.99999h640v360z" fill="none" fill-rule="nonzero" stroke="#000000" stroke-width="0" stroke-linecap="butt"/><g fill="#ffc400" fill-rule="nonzero" stroke-linecap="butt"><path d="M502.20436,-19.47156c0,-3.41431 2.76785,-6.18215 6.18216,-6.18215c3.41431,0 6.18215,2.76784 6.18215,6.18216c0,3.41431 -2.76784,6.18216 -6.18215,6.18216c-3.41431,0 -6.18216,-2.76785 -6.18216,-6.18216z" stroke="none" stroke-width="0.5"/><path d="M502.20436,-18.42864v-17.36129h137.84422v17.36129z" stroke="#fff6da" stroke-width="0"/><path d="M508.38652,-13.28941v-16.95652h131.66206v16.95652z" stroke="#fff6da" stroke-width="0"/></g><g fill-rule="nonzero" stroke-linecap="butt"><text transform="translate(34.22205,71.32698) scale(1.09862,1.09862)" font-size="40" xml:space="preserve" fill="#ffc500" stroke="none" stroke-width="1" font-family="&quot;LeagueSpartan-Bold&quot;, Sans Serif" font-weight="normal" text-anchor="start"><tspan x="0" dy="0">Pigeon of </tspan></text><g><path d="M259.89642,84.51038v-52.73353h118.95802v52.73353z" fill="#ffc400" stroke="#000000" stroke-width="0"/><text transform="translate(259.53078,71.32694) scale(1.09862,1.09862)" font-size="40" xml:space="preserve" fill="#fff6da" stroke="none" stroke-width="1" font-family="&quot;LeagueSpartan-Bold&quot;, Sans Serif" font-weight="normal" text-anchor="start"><tspan x="0" dy="0">Hope</tspan></text></g></g><g><path d="M632.3205,-19.07327l-0.57781,0.57682l-4.0478,-4.01586c0.06594,-0.06427 0.12145,-0.12174 0.15837,-0.16171c0.13342,-0.14441 0.25561,-0.29676 0.37821,-0.4493z" fill="#fff6da" fill-rule="nonzero" stroke="#000000" stroke-width="0" stroke-linecap="round"/><path d="M622.85723,-27.31177l0.55685,-0.583l4.07942,4.04053c-0.21383,0.17008 -0.43049,0.36025 -0.58899,0.55781z" fill="#fff6da" fill-rule="nonzero" stroke="#000000" stroke-width="0" stroke-linecap="round"/><path d="M623.80888,-28.27453l0.55686,-0.583l4.21467,4.17449c-0.00819,0.00839 -0.01644,0.01657 -0.02478,0.0245c-0.09275,0.0883 -0.50734,0.40699 -0.61158,0.48653z" fill="#fff6da" fill-rule="nonzero" stroke="#000000" stroke-width="0" stroke-linecap="round"/><path d="M633.27215,-20.03603l-0.5778,0.57683l-4.17113,-4.13821c0.21377,-0.1647 0.43174,-0.34064 0.60122,-0.52392c0.0037,-0.004 0.00737,-0.00798 0.01103,-0.01195z" fill="#fff6da" fill-rule="nonzero" stroke="#000000" stroke-width="0" stroke-linecap="round"/><path d="M624.38669,-18.49645l-0.57781,-0.57682l8.90642,-8.8215l0.55685,0.58299z" fill="#fff6da" fill-rule="nonzero" stroke="#000000" stroke-width="0" stroke-linecap="round"/><path d="M623.43504,-19.4592l-0.5778,-0.57683l8.90641,-8.8215l0.55685,0.583z" fill="#fff6da" fill-rule="nonzero" stroke="#000000" stroke-width="0" stroke-linecap="round"/><path d="M621.74256,-23.34038v-0.67321h3.31247v0.67321z" fill="#fff6da" fill-rule="nonzero" stroke="#000000" stroke-width="0" stroke-linecap="round"/><path d="M624.71842,-23.67699l0.3366,-0.3366l0.3366,0.3366l-0.3366,0.33661z" fill="#fff6da" fill-rule="nonzero" stroke="none" stroke-width="0.5" stroke-linecap="round"/><path d="M621.75758,-24.6247l0.71911,-2.02328l2.01443,2.02328z" fill="#fff6da" fill-rule="nonzero" stroke="#000000" stroke-width="0" stroke-linecap="round"/><path d="M624.49112,-22.72927l-2.01443,2.02329l-0.71911,-2.02329z" fill="#fff6da" fill-rule="nonzero" stroke="#000000" stroke-width="0" stroke-linecap="round"/><path d="M631.07435,-23.34038v-0.67321h3.31246v0.67321z" fill="#fff6da" fill-rule="nonzero" stroke="#000000" stroke-width="0" stroke-linecap="round"/><path d="M631.07435,-23.34038l-0.3366,-0.33661l0.3366,-0.3366l0.3366,0.3366z" fill="#fff6da" fill-rule="nonzero" stroke="none" stroke-width="0.5" stroke-linecap="round"/><path d="M631.63827,-24.6247l2.01443,-2.02328l0.71911,2.02328z" fill="#fff6da" fill-rule="nonzero" stroke="#000000" stroke-width="0" stroke-linecap="round"/><path d="M634.37181,-22.72927l-0.71911,2.02329l-2.01443,-2.02329z" fill="#fff6da" fill-rule="nonzero" stroke="#000000" stroke-width="0" stroke-linecap="round"/><path d="M626.42965,-19.64024l1.63504,-1.63504l1.63504,1.63504z" fill="#fff6da" fill-rule="nonzero" stroke="none" stroke-width="0.5" stroke-linecap="round"/><path d="M625.16081,-18.14881l0.80154,-0.80154v0.8017z" fill="#fff6da" fill-rule="nonzero" stroke="none" stroke-width="0.5" stroke-linecap="round"/><path d="M630.16704,-18.14788v-0.8017l0.80154,0.80154z" fill="#fff6da" fill-rule="nonzero" stroke="none" stroke-width="0.5" stroke-linecap="round"/><path d="M625.9495,-18.14864v-0.8017h4.22982v0.8017z" fill="#fff6da" fill-rule="nonzero" stroke="#000000" stroke-width="0" stroke-linecap="round"/><path d="M629.69973,-27.71374l-1.63504,1.63504l-1.63504,-1.63504z" fill="#fff6da" fill-rule="nonzero" stroke="none" stroke-width="0.5" stroke-linecap="round"/><path d="M625.96234,-29.20534v0.80171l-0.80154,-0.80155z" fill="#fff6da" fill-rule="nonzero" stroke="none" stroke-width="0.5" stroke-linecap="round"/><path d="M630.96858,-29.20593l-0.80154,0.80154v-0.8017z" fill="#fff6da" fill-rule="nonzero" stroke="none" stroke-width="0.5" stroke-linecap="round"/><path d="M630.17932,-29.20534v0.80171h-4.22982v-0.80171z" fill="#fff6da" fill-rule="nonzero" stroke="#000000" stroke-width="0" stroke-linecap="round"/><path d="M620.57185,-23.67699c0,-4.13818 3.35465,-7.49283 7.49283,-7.49283c4.13818,0 7.49283,3.35465 7.49283,7.49284c0,4.13817 -3.35465,7.49284 -7.49283,7.49284c-4.13818,0 -7.49283,-3.35466 -7.49283,-7.49284z" fill="none" fill-rule="nonzero" stroke="#fff6da" stroke-width="1" stroke-linecap="round"/><path d="M568.11293,-27.0625c-0.00169,-0.25304 0.04279,-0.50427 0.13127,-0.74133c0.0818,-0.22226 0.20341,-0.42773 0.3589,-0.60637c0.14902,-0.17023 0.33024,-0.30933 0.53321,-0.40929c0.20287,-0.10036 0.42637,-0.15198 0.65271,-0.15076c0.21137,-0.002 0.42069,0.04151 0.61374,0.1276c0.19346,0.08864 0.36821,0.21347 0.51481,0.36773l0.01544,-0.00772v-1.67462h0.86489v4.90178h-0.86636v-0.37839l-0.01544,-0.00772c-0.15051,0.14639 -0.32453,0.26647 -0.51481,0.35522c-0.19205,0.08832 -0.40125,0.13315 -0.61263,0.13128c-0.22622,0.00116 -0.44958,-0.05046 -0.65234,-0.15077c-0.20297,-0.09995 -0.38418,-0.23904 -0.5332,-0.40928c-0.15552,-0.17876 -0.27714,-0.38437 -0.3589,-0.60675c-0.0884,-0.23684 -0.13288,-0.48781 -0.13128,-0.7406zM568.97782,-27.0625c-0.00079,0.14548 0.02669,0.28972 0.0809,0.42473c0.05039,0.12799 0.12366,0.24574 0.21623,0.3475c0.08932,0.09726 0.19689,0.17596 0.31661,0.23166c0.1196,0.05634 0.25023,0.08535 0.38243,0.08494c0.13474,0.00098 0.26801,-0.02804 0.39015,-0.08494c0.12057,-0.05626 0.22938,-0.13487 0.32066,-0.23166c0.0943,-0.10042 0.16779,-0.21853 0.21622,-0.3475c0.0518,-0.13558 0.07799,-0.27959 0.07722,-0.42473c0.00148,-0.1465 -0.02472,-0.29198 -0.07722,-0.42877c-0.04967,-0.12835 -0.12301,-0.24624 -0.21622,-0.3475c-0.09046,-0.09868 -0.19941,-0.17863 -0.32066,-0.23535c-0.12203,-0.05741 -0.2553,-0.08693 -0.39015,-0.08641c-0.1322,-0.00041 -0.26283,0.02861 -0.38243,0.08494c-0.12041,0.05616 -0.22813,0.13624 -0.31661,0.23535c-0.09146,0.10258 -0.16461,0.22013 -0.21623,0.3475c-0.05514,0.13665 -0.08264,0.28289 -0.0809,0.43024zM575.12472,-27.98182c-0.15057,-0.1158 -0.33517,-0.17863 -0.52511,-0.17872c-0.1322,-0.00041 -0.26283,0.02861 -0.38243,0.08494c-0.1197,0.05556 -0.22634,0.13576 -0.31294,0.23535c-0.08907,0.1029 -0.15961,0.22048 -0.2085,0.3475c-0.0525,0.13679 -0.07871,0.28226 -0.07722,0.42877v1.80847h-0.86452v-3.61401h0.86489v0.44128l0.01544,0.00772c0.14389,-0.17254 0.3229,-0.31245 0.52511,-0.41038c0.1929,-0.09206 0.40404,-0.13956 0.61778,-0.139c0.13999,-0.0006 0.27926,0.02023 0.41296,0.06178c0.13135,0.04118 0.25719,0.09823 0.37471,0.16989zM577.61238,-25.97367c0.15244,0.0009 0.30318,-0.03214 0.44128,-0.09671c0.13329,-0.06227 0.25474,-0.14725 0.35889,-0.25115l0.60234,0.59461c-0.17455,0.17992 -0.38336,0.32308 -0.6141,0.42104c-0.23762,0.10105 -0.49342,0.15236 -0.75163,0.15077c-0.25742,0.00203 -0.51247,-0.04931 -0.74905,-0.15077c-0.22603,-0.09676 -0.43156,-0.23566 -0.60564,-0.40928c-0.17413,-0.17431 -0.31341,-0.38025 -0.41038,-0.60675c-0.10095,-0.23404 -0.15229,-0.48646 -0.15077,-0.74133c-0.00149,-0.2545 0.04854,-0.50668 0.14709,-0.74133c0.09356,-0.22522 0.22852,-0.4309 0.39787,-0.60638c0.16865,-0.17337 0.36934,-0.31237 0.59094,-0.40928c0.22862,-0.10089 0.476,-0.15227 0.72589,-0.15076c0.24873,-0.00179 0.49496,0.0496 0.72221,0.15076c0.22053,0.09748 0.42027,0.23643 0.58836,0.40928c0.16957,0.17567 0.30466,0.38161 0.39825,0.60712c0.09854,0.23466 0.14858,0.48683 0.14709,0.74133c0,0.04119 -0.00123,0.07587 -0.00368,0.10407c-0.00245,0.02819 -0.00368,0.05014 -0.00368,0.06583c-0.00429,0.01511 -0.00688,0.03065 -0.00772,0.04633h-2.83627c0.00125,0.10803 0.02903,0.21411 0.0809,0.30889c0.05603,0.10531 0.13081,0.19952 0.22064,0.278c0.09663,0.08496 0.20609,0.15409 0.32433,0.20482c0.12189,0.05368 0.25366,0.08125 0.38684,0.0809zM578.51588,-27.56445l0.00772,-0.01545c-0.09254,-0.17467 -0.22697,-0.32363 -0.39126,-0.43354c-0.15838,-0.10693 -0.34542,-0.16347 -0.53652,-0.16216c-0.19329,-0.00361 -0.38311,0.05167 -0.54424,0.15849c-0.16305,0.11209 -0.29684,0.26165 -0.39015,0.43612l0.00772,0.01544zM579.71282,-27.0625c-0.00169,-0.25304 0.04279,-0.50427 0.13127,-0.74133c0.08191,-0.22228 0.20366,-0.42776 0.35927,-0.60637c0.14891,-0.17019 0.33,-0.30929 0.53283,-0.40929c0.20287,-0.10036 0.42638,-0.15198 0.65272,-0.15076c0.21049,-0.00124 0.4187,0.04357 0.61005,0.13128c0.19113,0.08798 0.36402,0.2111 0.50967,0.36294l0.01544,-0.00773v-0.38611h0.86158v3.61438h-0.86305v-0.37067l-0.01544,-0.01544c-0.1473,0.1479 -0.31993,0.26821 -0.50967,0.35522c-0.19135,0.0877 -0.39956,0.13252 -0.61005,0.13128c-0.22634,0.00122 -0.44984,-0.0504 -0.65271,-0.15077c-0.20271,-0.10004 -0.38366,-0.23912 -0.53247,-0.40928c-0.15565,-0.17872 -0.2774,-0.38434 -0.35927,-0.60675c-0.0884,-0.23684 -0.13288,-0.48781 -0.13128,-0.7406zM580.57771,-27.0625c-0.00138,0.14676 0.02624,0.29234 0.08127,0.4284c0.05103,0.12657 0.12425,0.24301 0.21623,0.34382c0.08932,0.09726 0.19689,0.17596 0.31661,0.23166c0.11949,0.05629 0.24999,0.0853 0.38207,0.08494c0.13474,0.00098 0.26802,-0.02804 0.39016,-0.08494c0.11972,-0.0557 0.2273,-0.13442 0.31661,-0.23166c0.09158,-0.10036 0.16354,-0.21697 0.21218,-0.34382c0.05246,-0.13668 0.07865,-0.28201 0.07722,-0.4284c0.00148,-0.1465 -0.02472,-0.29198 -0.07722,-0.42877c-0.04922,-0.12767 -0.12111,-0.24539 -0.21218,-0.3475c-0.08848,-0.09911 -0.1962,-0.17919 -0.31661,-0.23535c-0.12236,-0.05757 -0.25603,-0.08709 -0.39126,-0.08641c-0.13207,-0.00036 -0.26258,0.02867 -0.38207,0.08494c-0.12041,0.05616 -0.22813,0.13624 -0.31661,0.23535c-0.09146,0.10258 -0.16461,0.22013 -0.21623,0.3475c-0.05527,0.13663 -0.08289,0.28286 -0.08127,0.43024zM587.18022,-28.31277c0.14182,-0.1887 0.31721,-0.34963 0.51738,-0.47473c0.18699,-0.11851 0.40376,-0.1815 0.62514,-0.18166c0.05148,0 0.12503,0.0038 0.22064,0.0114c0.10665,0.01024 0.21162,0.03359 0.31256,0.0695c0.12206,0.04289 0.23869,0.09991 0.34751,0.16989c0.12758,0.08384 0.23659,0.19298 0.32029,0.32066c0.1056,0.1616 0.18514,0.3388 0.23571,0.52511c0.06691,0.25179 0.09811,0.51175 0.09267,0.77223v1.84488h-0.86599v-1.84561c0.00789,-0.20168 -0.02076,-0.40313 -0.08457,-0.59461c-0.04107,-0.12075 -0.11129,-0.2295 -0.20445,-0.31661c-0.07011,-0.06215 -0.15533,-0.10476 -0.24711,-0.12355c-0.06992,-0.01387 -0.14091,-0.02163 -0.21218,-0.02317c-0.1041,0.0001 -0.20606,0.02954 -0.29418,0.08494c-0.09471,0.05861 -0.17623,0.13624 -0.23938,0.22799c-0.07053,0.10267 -0.12405,0.21603 -0.15849,0.33574c-0.03914,0.13287 -0.05859,0.27076 -0.05773,0.40928v1.84562h-0.85717v-1.84562c0,-0.10811 -0.00515,-0.22529 -0.01544,-0.35154c-0.00845,-0.11951 -0.03992,-0.23626 -0.09267,-0.34382c-0.05274,-0.10376 -0.13109,-0.19236 -0.22762,-0.25741c-0.12374,-0.07672 -0.26792,-0.11392 -0.41332,-0.10664c-0.10274,-0.00011 -0.20335,0.02937 -0.28977,0.08494c-0.09293,0.05947 -0.17296,0.137 -0.23534,0.22799c-0.07053,0.10267 -0.12405,0.21603 -0.15849,0.33573c-0.03914,0.13287 -0.05859,0.27077 -0.05773,0.40928v1.84709h-0.86489v-3.61401h0.86489v0.47105l0.01544,0.00772c0.1206,-0.16763 0.27106,-0.31161 0.44384,-0.42472c0.15298,-0.10033 0.33186,-0.154 0.51481,-0.15444c0.20934,0.00238 0.41438,0.0597 0.59461,0.16621c0.19711,0.11225 0.35383,0.28377 0.44789,0.49018zM594.19678,-27.0625c0.00257,0.25436 -0.04751,0.50652 -0.1471,0.7406c-0.09719,0.22656 -0.23672,0.43249 -0.41111,0.60675c-0.1742,0.17366 -0.37986,0.31256 -0.60601,0.40928c-0.23625,0.10131 -0.4909,0.15264 -0.74796,0.15077c-0.25742,0.00203 -0.51247,-0.04931 -0.74905,-0.15077c-0.22668,-0.09656 -0.43285,-0.23547 -0.60748,-0.40928c-0.17347,-0.17447 -0.31212,-0.3804 -0.40855,-0.60675c-0.10095,-0.23404 -0.15229,-0.48646 -0.15077,-0.74133c-0.00141,-0.25463 0.04992,-0.50679 0.15077,-0.7406c0.09668,-0.22628 0.23559,-0.43207 0.40928,-0.60637c0.17408,-0.17362 0.37961,-0.31252 0.60564,-0.40929c0.23699,-0.10136 0.49242,-0.15245 0.75016,-0.15003c0.25742,-0.00203 0.51247,0.04931 0.74905,0.15077c0.22615,0.09672 0.43181,0.23563 0.60601,0.40928c0.17388,0.17402 0.31303,0.37956 0.41002,0.60564c0.09969,0.23431 0.14977,0.48672 0.1471,0.74133zM593.33189,-27.0625c0.00153,-0.14686 -0.02596,-0.29256 -0.0809,-0.42877c-0.05241,-0.12874 -0.12836,-0.24658 -0.22395,-0.3475c-0.09511,-0.1002 -0.20941,-0.18025 -0.3361,-0.23535c-0.12794,-0.05679 -0.26635,-0.08622 -0.40634,-0.08641c-0.14088,-0.00069 -0.28031,0.02825 -0.40928,0.08494c-0.12656,0.05514 -0.24073,0.13518 -0.33573,0.23535c-0.09559,0.10092 -0.17153,0.21876 -0.22394,0.3475c-0.05508,0.13617 -0.0827,0.28189 -0.08127,0.42877c-0.00138,0.14676 0.02624,0.29234 0.08127,0.4284c0.05182,0.12796 0.12786,0.2447 0.22394,0.34382c0.09585,0.09825 0.20987,0.17693 0.33573,0.23166c0.12896,0.05669 0.2684,0.08563 0.40928,0.08495c0.14088,0.00069 0.28031,-0.02826 0.40928,-0.08495c0.12599,-0.0547 0.24015,-0.13338 0.3361,-0.23166c0.09609,-0.09913 0.17212,-0.21587 0.22394,-0.34382c0.05433,-0.1357 0.08144,-0.28077 0.0798,-0.42693zM597.17756,-27.98182c-0.15007,-0.11542 -0.33396,-0.17823 -0.52328,-0.17872c-0.13207,-0.00036 -0.26258,0.02867 -0.38207,0.08494c-0.11971,0.05556 -0.22635,0.13576 -0.31294,0.23535c-0.08907,0.1029 -0.15961,0.22048 -0.2085,0.3475c-0.0525,0.13679 -0.0787,0.28226 -0.07722,0.42877v1.80847h-0.86489v-3.61401h0.86489v0.44128l0.01544,0.00772c0.14401,-0.17215 0.32301,-0.31167 0.52511,-0.40928c0.1929,-0.09206 0.40403,-0.13957 0.61777,-0.139c0.14012,-0.00064 0.27951,0.0202 0.41332,0.06178c0.13122,0.0412 0.25693,0.09825 0.37434,0.16988zM598.17557,-25.2555v-3.61401h0.86489v3.61401zM598.06745,-30.05873c-0.00269,-0.1428 0.05483,-0.28013 0.15849,-0.37839c0.10113,-0.10117 0.23904,-0.15692 0.38207,-0.15444c0.14303,-0.00248 0.28093,0.05327 0.38207,0.15444c0.10366,0.09826 0.16118,0.23559 0.15849,0.37839c0.00269,0.1428 -0.05484,0.28014 -0.15849,0.37839c-0.10113,0.10117 -0.23904,0.15691 -0.38207,0.15444c-0.14303,0.00248 -0.28093,-0.05327 -0.38207,-0.15444c-0.10366,-0.09826 -0.16117,-0.23559 -0.15849,-0.37839zM601.56562,-25.97367c0.15343,0.00134 0.30522,-0.03171 0.44421,-0.09671c0.13342,-0.06223 0.255,-0.14722 0.35927,-0.25115l0.60233,0.59461c-0.17455,0.17992 -0.38336,0.32308 -0.6141,0.42104c-0.23808,0.10125 -0.4944,0.15256 -0.7531,0.15077c-0.25742,0.00203 -0.51247,-0.04931 -0.74905,-0.15077c-0.22615,-0.09672 -0.43181,-0.23562 -0.60601,-0.40928c-0.17373,-0.17441 -0.31264,-0.38034 -0.40928,-0.60675c-0.10095,-0.23404 -0.15228,-0.48646 -0.15076,-0.74133c-0.00149,-0.2545 0.04854,-0.50668 0.14709,-0.74133c0.09344,-0.22519 0.22828,-0.43087 0.39751,-0.60638c0.16854,-0.17333 0.3691,-0.31232 0.59056,-0.40928c0.22907,-0.10054 0.47684,-0.15142 0.72699,-0.1493c0.24873,-0.00179 0.49497,0.04961 0.72222,0.15077c0.22053,0.09748 0.42027,0.23643 0.58836,0.40928c0.16823,0.17551 0.30217,0.38091 0.39493,0.60564c0.09854,0.23466 0.14858,0.48683 0.14709,0.74133c0,0.04119 -0.00123,0.07587 -0.00368,0.10407c-0.00245,0.02819 -0.00367,0.05014 -0.00367,0.06583c-0.00429,0.01511 -0.00688,0.03065 -0.00772,0.04633h-2.83479c0.00136,0.10806 0.02927,0.21415 0.08127,0.30889c0.05603,0.10531 0.1308,0.19952 0.22063,0.278c0.09663,0.08496 0.20609,0.15409 0.32433,0.20482c0.12143,0.05349 0.25268,0.08104 0.38537,0.0809zM602.4706,-27.56445l0.00772,-0.01545c-0.09254,-0.17467 -0.22697,-0.32363 -0.39126,-0.43354c-0.15849,-0.10701 -0.34564,-0.16354 -0.53688,-0.16216c-0.19329,-0.00361 -0.38311,0.05167 -0.54423,0.15849c-0.16304,0.1121 -0.29683,0.26165 -0.39016,0.43612l0.00772,0.01544zM605.80513,-28.16053c-0.12484,-0.00096 -0.24808,0.02818 -0.35927,0.08494c-0.1128,0.05799 -0.21284,0.13803 -0.29418,0.23535c-0.08662,0.10328 -0.15456,0.22087 -0.20078,0.3475c-0.05004,0.13735 -0.07496,0.28259 -0.07355,0.42877v1.80847h-0.86231v-3.61401h0.86489v0.44128l0.01544,0.00772c0.13768,-0.17081 0.31017,-0.31034 0.50599,-0.40928c0.18338,-0.09159 0.38558,-0.13918 0.59056,-0.139c0.22201,-0.00592 0.4432,0.02937 0.65235,0.10407c0.16463,0.06142 0.31557,0.15463 0.44421,0.27433c0.11434,0.10774 0.20729,0.23612 0.27396,0.37838c0.06196,0.13224 0.10979,0.27067 0.14267,0.41296c0.02936,0.12575 0.04879,0.25362 0.05811,0.38243c0.00784,0.1184 0.01176,0.21365 0.01176,0.28572v1.8754h-0.86489v-1.80701c0,-0.10811 -0.00515,-0.22652 -0.01544,-0.35522c-0.00896,-0.12401 -0.04311,-0.24488 -0.10038,-0.35522c-0.06295,-0.11471 -0.15652,-0.20968 -0.27028,-0.27433c-0.15963,-0.0837 -0.33888,-0.12282 -0.51886,-0.11326zM609.83613,-28.03697v2.78148h-0.86489v-2.78001h-0.88034v-0.834h0.88034v-1.25394h0.86489v1.25394h0.88034v0.834zM612.85552,-25.97514c0.15343,0.00134 0.30522,-0.03171 0.44421,-0.09671c0.13342,-0.06223 0.255,-0.14723 0.35927,-0.25116l0.60233,0.59462c-0.17455,0.17992 -0.38336,0.32308 -0.6141,0.42104c-0.23808,0.10125 -0.49439,0.15256 -0.7531,0.15077c-0.25742,0.00203 -0.51247,-0.04931 -0.74905,-0.15077c-0.22617,-0.09624 -0.43195,-0.23464 -0.60638,-0.4078c-0.1736,-0.17444 -0.31238,-0.38036 -0.40891,-0.60675c-0.10095,-0.23404 -0.15229,-0.48646 -0.15077,-0.74134c-0.00149,-0.2545 0.04854,-0.50668 0.14709,-0.74133c0.09344,-0.22519 0.22828,-0.43087 0.39751,-0.60637c0.16854,-0.17333 0.3691,-0.31232 0.59057,-0.40928c0.22862,-0.10089 0.476,-0.15228 0.72589,-0.15077c0.24873,-0.00179 0.49497,0.04961 0.72222,0.15077c0.22053,0.09748 0.42027,0.23643 0.58836,0.40928c0.16878,0.17585 0.30312,0.38178 0.39605,0.60711c0.09854,0.23466 0.14857,0.48683 0.14709,0.74133c0,0.04119 -0.00122,0.07587 -0.00367,0.10407c-0.00245,0.02819 -0.00368,0.05014 -0.00368,0.06583c-0.00429,0.01511 -0.00688,0.03065 -0.00772,0.04633h-2.83479c0.00136,0.10806 0.02927,0.21414 0.08126,0.30889c0.05603,0.10531 0.13081,0.19952 0.22064,0.278c0.09663,0.08496 0.20609,0.15409 0.32433,0.20483c0.12143,0.05349 0.25268,0.08104 0.38537,0.08089zM613.75976,-27.56445l0.00772,-0.01545c-0.09233,-0.17458 -0.22651,-0.32354 -0.39053,-0.43354c-0.15849,-0.10701 -0.34565,-0.16354 -0.53688,-0.16216c-0.19329,-0.00361 -0.38311,0.05167 -0.54423,0.15849c-0.16304,0.1121 -0.29683,0.26165 -0.39016,0.43612l0.00772,0.01544zM614.9567,-27.0625c-0.00169,-0.25304 0.04279,-0.50427 0.13128,-0.74133c0.08191,-0.22228 0.20366,-0.42776 0.35927,-0.60637c0.14891,-0.17019 0.33,-0.30929 0.53283,-0.40929c0.20287,-0.10036 0.42637,-0.15198 0.65271,-0.15076c0.21137,-0.002 0.42069,0.04151 0.61374,0.1276c0.19346,0.08864 0.36821,0.21347 0.51481,0.36773l0.01544,-0.00772v-1.67462h0.86489v4.90178h-0.86489v-0.37839l-0.01544,-0.00772c-0.15051,0.14639 -0.32454,0.26647 -0.51481,0.35522c-0.1924,0.08848 -0.40198,0.13331 -0.61374,0.13128c-0.22634,0.00122 -0.44984,-0.0504 -0.65271,-0.15077c-0.20284,-0.09999 -0.38392,-0.23908 -0.53283,-0.40928c-0.15592,-0.17867 -0.27792,-0.38428 -0.36001,-0.60675c-0.0884,-0.23684 -0.13288,-0.48781 -0.13128,-0.7406zM615.8216,-27.0625c-0.00079,0.14548 0.02668,0.28972 0.08089,0.42473c0.05039,0.12799 0.12366,0.24574 0.21623,0.3475c0.08932,0.09724 0.19689,0.17596 0.3166,0.23166c0.1196,0.05634 0.25023,0.08535 0.38243,0.08494c0.13474,0.00098 0.26802,-0.02804 0.39016,-0.08494c0.12044,-0.0563 0.22911,-0.1349 0.32029,-0.23166c0.0943,-0.10042 0.16779,-0.21853 0.21622,-0.3475c0.0518,-0.13558 0.07799,-0.27959 0.07722,-0.42473c0.00148,-0.1465 -0.02472,-0.29198 -0.07722,-0.42877c-0.04967,-0.12835 -0.12302,-0.24624 -0.21622,-0.3475c-0.09035,-0.09863 -0.19916,-0.17859 -0.32029,-0.23535c-0.12214,-0.05691 -0.25542,-0.08592 -0.39016,-0.08494c-0.1322,-0.00041 -0.26283,0.0286 -0.38243,0.08494c-0.12041,0.05617 -0.22812,0.13624 -0.3166,0.23535c-0.09146,0.10258 -0.16461,0.22013 -0.21623,0.3475c-0.0552,0.13615 -0.08294,0.28186 -0.08164,0.42877z" fill="#fff6da" fill-rule="nonzero" stroke="none" stroke-width="1" stroke-linecap="butt"/><path d="M560.55035,-30.74987c0,0 2.95456,-0.44571 4.74164,0.95978c1.78709,1.4055 1.44271,4.71889 1.44271,4.71889c0,0 -3.28418,0.41151 -4.74165,-0.95979c-1.45748,-1.37129 -1.44271,-4.71888 -1.44271,-4.71888z" fill="#fff6da" fill-rule="nonzero" stroke="none" stroke-width="1" stroke-linecap="butt"/><path d="M615.41465,-23.92527c0.98389,0 1.96863,0.22232 2.472,0.66692l-0.00176,-0.00089c0.50423,0.44552 0.7568,1.07626 0.7568,1.89229v2.30691c0,0.80457 -0.25433,1.42648 -0.76032,1.86495c-0.50778,0.43843 -1.49253,0.65811 -2.47726,0.65811c-0.98386,0 -2.02756,-0.00705 -2.59253,-0.64841c-0.59933,-0.681 -0.37811,-1.2 -0.13634,-1.76735c0.14382,-0.33737 0.29489,-0.69186 0.28504,-1.1077c-0.00903,-0.37711 -0.17698,-0.64405 -0.34515,-0.91134c-0.24171,-0.38422 -0.48388,-0.76911 -0.255,-1.48288c0.43208,-1.34798 1.89553,-1.47061 3.05452,-1.47061M616.7602,-18.0261c0.22618,-0.22232 0.33971,-0.60344 0.33971,-1.14597v-2.08194c0,-0.554 -0.11266,-0.94482 -0.33971,-1.1742c-0.22704,-0.22937 -0.85449,-0.34226 -1.39922,-0.34226c-0.54472,0 -1.17218,0.11377 -1.39924,0.34226c-0.22615,0.22849 -0.33968,0.62019 -0.33968,1.17422v2.08192c0,0.54166 0.11265,0.92366 0.33968,1.14597c0.22706,0.22228 0.85452,0.33345 1.39924,0.33345c0.54472,0 1.17218,-0.11117 1.39922,-0.33345M591.56644,-16.57757c-0.5886,0 -1.14738,-0.09089 -1.6772,-0.27261c-0.52982,-0.18173 -0.98772,-0.46315 -1.37368,-0.84512l0.5263,-1.02861c0.38072,0.32198 0.78949,0.5637 1.22634,0.72426c0.43685,0.16142 0.93509,0.24084 1.49386,0.24084c0.44561,0 0.78507,-0.08029 1.01666,-0.24084c0.23159,-0.16145 0.34825,-0.39346 0.34825,-0.69781c0,-0.27346 -0.13509,-0.47285 -0.40615,-0.59459c-0.27017,-0.12262 -0.84299,-0.25847 -1.71667,-0.40757c-0.83862,-0.13144 -1.43072,-0.34402 -1.77544,-0.63956c-0.34472,-0.29553 -0.51754,-0.73752 -0.51754,-1.32858c0,-0.63779 0.23858,-1.1671 0.71401,-1.58703c0.47631,-0.41903 1.17195,-0.62989 2.08772,-0.62989c0.55351,0 1.08073,0.09088 1.58511,0.27349c0.50262,0.18173 0.9,0.43314 1.19121,0.75601l-0.46403,0.98365c-0.35701,-0.27085 -0.73071,-0.47726 -1.12016,-0.61928c-0.38948,-0.14117 -0.79563,-0.21262 -1.21754,-0.21262c-0.39298,0 -0.70177,0.07057 -0.92809,0.21085c-0.22631,0.14025 -0.33947,0.35726 -0.33947,0.65103c0,0.27526 0.13862,0.47285 0.41493,0.59283c0.27631,0.11998 0.8605,0.2585 1.75263,0.41374c0.82719,0.14293 1.40965,0.3661 1.74911,0.67048c0.33947,0.30346 0.50879,0.75071 0.50879,1.34089c0,0.70928 -0.27282,1.26063 -0.81666,1.6541c-0.54476,0.39344 -1.29827,0.59018 -2.26231,0.59018zM599.27032,-16.53701c-1.06343,0 -2.07039,-0.21967 -2.5395,-0.65899c-0.46911,-0.44019 -0.70368,-1.1195 -0.70368,-2.04135v-4.56615h1.52373v4.44c0,0.57341 0.1014,0.98097 0.30511,1.22003c0.20368,0.23995 0.83503,0.35905 1.41524,0.35905c0.58024,0 1.21159,-0.11998 1.41526,-0.35905c0.12907,-0.15148 0.16184,-0.37695 0.20349,-0.66363c0.02411,-0.16583 0.0512,-0.35212 0.10162,-0.5564c0.05038,-0.20361 0.23004,-0.46574 0.41413,-0.73436c0.2315,-0.33779 0.47009,-0.68586 0.46762,-0.94089c-0.00246,-0.25524 -0.24084,-0.58668 -0.47106,-0.90676c-0.18277,-0.25412 -0.36038,-0.50107 -0.4107,-0.69705c-0.07231,-0.28055 0,-1.16093 0,-1.16093h1.52372c0,0 0.01587,0.87069 0,1.16093c-0.00982,0.17504 -0.04511,0.42618 -0.08157,0.68574c-0.04548,0.32387 -0.09283,0.66081 -0.09481,0.87924c-0.00201,0.26309 0.04825,0.67331 0.09599,1.06303l0.00004,0.00003c0.03616,0.29508 0.07084,0.57839 0.08035,0.77717c0.04408,0.9201 -0.23457,1.60204 -0.70368,2.04135c-0.46999,0.43932 -1.4761,0.65899 -2.53953,0.65899zM608.47153,-16.65943c0,0 -0.36139,-0.4127 -0.65463,-1.37276c-0.10657,-0.3492 -0.14169,-0.64397 -0.17404,-0.91576c-0.04189,-0.3519 -0.07924,-0.66531 -0.26117,-1.00849c-0.14801,-0.27933 -0.37531,-0.436 -0.6339,-0.61421c-0.21262,-0.14652 -0.44634,-0.3076 -0.67456,-0.5634c-0.4498,-0.50414 -0.6457,-1.08826 -0.6457,-1.08826v5.56286h-1.31903v-7.14338h2.09492c0,0 0.64248,1.01067 0.92843,1.62746c0.15543,0.33515 0.20802,0.636 0.26105,0.9392c0.05755,0.32907 0.11557,0.66083 0.30596,1.04217c0.32022,0.64181 0.52123,0.80258 0.75832,0.99225c0.12059,0.09644 0.25053,0.2004 0.41021,0.37887c0.26729,0.29878 0.38006,0.60046 0.38006,0.60046v-5.58044h1.31049v7.14341h-2.08642" fill="#fff6da" fill-rule="evenodd" stroke="none" stroke-width="1" stroke-linecap="butt"/><g fill="#fff6da" fill-rule="nonzero" stroke="#fff6da" stroke-width="0.1" stroke-linecap="butt"><path d="M567.57545,-16.81953c-0.20805,0.18751 -0.4906,0.28255 -0.84764,0.28255c-0.24658,0 -0.46492,-0.06165 -0.64986,-0.18494c-0.1875,-0.12329 -0.33135,-0.29796 -0.4341,-0.52142c-0.10275,-0.22347 -0.15411,-0.4829 -0.15411,-0.77829v-0.41098c0,-0.29539 0.05137,-0.55482 0.15411,-0.77829c0.10275,-0.22347 0.24916,-0.39813 0.43924,-0.52143c0.19007,-0.12329 0.41098,-0.18494 0.66527,-0.18494c0.23117,0 0.43409,0.0411 0.60362,0.12587c0.16953,0.08476 0.30566,0.20805 0.40584,0.36731c0.10018,0.15926 0.15926,0.35447 0.18237,0.5805h-0.27741c-0.07192,-0.55738 -0.37502,-0.83736 -0.91442,-0.83736c-0.20035,0 -0.37501,0.05137 -0.52142,0.15412c-0.14641,0.10274 -0.25943,0.24915 -0.33906,0.43409c-0.07962,0.18751 -0.11816,0.40584 -0.11816,0.65243v0.41611c0,0.24144 0.03854,0.45978 0.11302,0.64729c0.07448,0.19008 0.18494,0.33648 0.32878,0.44437c0.14384,0.10532 0.31594,0.15925 0.51886,0.15925c0.28512,0 0.50344,-0.06935 0.65242,-0.20805c0.14898,-0.13871 0.24145,-0.34676 0.27741,-0.62931h0.27741c-0.03339,0.33905 -0.15412,0.60362 -0.36217,0.79113z"/><path d="M569.88719,-18.85899c0.13357,0.14384 0.20035,0.36988 0.20035,0.68325v1.59253h-0.27227v-1.59253c0,-0.24144 -0.0488,-0.41098 -0.14641,-0.51372c-0.09761,-0.10018 -0.24145,-0.15155 -0.42896,-0.15155c-0.17723,0 -0.32621,0.05394 -0.45207,0.16696c-0.12586,0.11045 -0.21577,0.24915 -0.27484,0.41354v1.67986h-0.27228v-3.47531h0.27228v1.43585c0.08734,-0.14128 0.20035,-0.25173 0.33649,-0.33392c0.13613,-0.07963 0.29026,-0.12073 0.45978,-0.12073c0.25172,0 0.44436,0.07193 0.57793,0.21577z"/><path d="M572.25544,-16.82723c0.01284,0.08991 0.03082,0.15926 0.05651,0.21576v0.02826h-0.29026c-0.02825,-0.07963 -0.04623,-0.19264 -0.05394,-0.34163c-0.08991,0.11559 -0.20292,0.20806 -0.3442,0.27998c-0.14127,0.07192 -0.30053,0.10788 -0.4829,0.10788c-0.15669,0 -0.29539,-0.03082 -0.41354,-0.0899c-0.11816,-0.05907 -0.21063,-0.14128 -0.27741,-0.24659c-0.06421,-0.10532 -0.09761,-0.22603 -0.09761,-0.35703c0,-0.15926 0.04366,-0.29538 0.13356,-0.41354c0.08991,-0.11559 0.21834,-0.20549 0.3853,-0.2697c0.16696,-0.06422 0.36731,-0.09504 0.59334,-0.09504h0.49831v-0.27484c0,-0.17723 -0.05394,-0.31337 -0.16439,-0.41355c-0.11045,-0.10018 -0.26457,-0.15155 -0.46749,-0.15155c-0.12329,0 -0.23631,0.02311 -0.33649,0.06678c-0.10018,0.04367 -0.1798,0.10532 -0.23631,0.1798c-0.05651,0.07448 -0.08476,0.15926 -0.08476,0.24916l-0.27228,-0.00257c0,-0.12329 0.0411,-0.23888 0.12072,-0.34933c0.07962,-0.11045 0.19265,-0.20035 0.33392,-0.26713c0.14384,-0.06678 0.30566,-0.10275 0.48289,-0.10275c0.17723,0 0.33135,0.03083 0.46492,0.08991c0.13357,0.05907 0.23888,0.14897 0.31337,0.26713c0.07448,0.11816 0.11302,0.26457 0.11302,0.43924v1.18156c0.00513,0.08991 0.01285,0.17979 0.02569,0.2697zM571.66209,-16.91199c0.14127,-0.08991 0.24145,-0.20548 0.30309,-0.34676v-0.53941h-0.46235c-0.18494,0 -0.34162,0.02055 -0.47262,0.06422c-0.131,0.04367 -0.23374,0.10532 -0.30309,0.18751c-0.06935,0.08219 -0.10532,0.1798 -0.10532,0.29282c0,0.08991 0.02312,0.16953 0.06678,0.24144c0.04624,0.07192 0.10789,0.12843 0.19264,0.1721c0.08219,0.04109 0.1798,0.06422 0.29025,0.06422c0.18494,-0.00257 0.34933,-0.04623 0.4906,-0.13613z"/><path d="M573.61937,-16.5755c-0.03082,0.01028 -0.07449,0.02055 -0.12843,0.02569c-0.05394,0.00771 -0.10788,0.01028 -0.16182,0.01028c-0.16953,0 -0.30052,-0.0488 -0.393,-0.14641c-0.09247,-0.09761 -0.1387,-0.262 -0.1387,-0.49574v-1.62849h-0.44694v-0.2209h0.44694v-0.62674h0.27227v0.62931h0.50344v0.2209h-0.50344v1.62849c0,0.15668 0.02826,0.26457 0.08476,0.32108c0.05651,0.05651 0.13356,0.08477 0.23117,0.08477c0.05394,0 0.12843,-0.0077 0.2209,-0.02568z"/><path d="M576.0544,-16.77842c-0.09504,0.06678 -0.2209,0.1233 -0.37759,0.16953c-0.15669,0.04623 -0.34163,0.06935 -0.55482,0.06935c-0.25686,0 -0.48547,-0.06165 -0.68582,-0.18494c-0.20035,-0.12329 -0.35446,-0.29796 -0.46748,-0.52657c-0.11045,-0.22861 -0.16696,-0.49317 -0.16696,-0.7937v-0.4007c0,-0.30053 0.05137,-0.55996 0.15411,-0.78343c0.10275,-0.22347 0.25172,-0.39299 0.4418,-0.51372c0.19007,-0.12073 0.41868,-0.1798 0.67811,-0.1798c0.23631,0 0.43923,0.0411 0.60876,0.12329c0.16953,0.08219 0.30052,0.19778 0.39557,0.3442c0.09504,0.14641 0.15669,0.31337 0.1798,0.50344h-0.2774c-0.03596,-0.21833 -0.12587,-0.39557 -0.27228,-0.5317c-0.14641,-0.13613 -0.35703,-0.20292 -0.63445,-0.20292c-0.21063,0 -0.39042,0.05137 -0.5394,0.15411c-0.14898,0.10274 -0.262,0.24659 -0.33906,0.43152c-0.07705,0.18494 -0.11559,0.40327 -0.11559,0.65242v0.40584c0,0.25429 0.04367,0.47519 0.12843,0.66783c0.08476,0.19264 0.20806,0.33906 0.36474,0.44437c0.15669,0.10532 0.33906,0.15668 0.54711,0.15668c0.15412,0 0.29282,-0.01542 0.41098,-0.04624c0.11816,-0.03082 0.21577,-0.06678 0.29026,-0.11044c0.07448,-0.04367 0.131,-0.08733 0.16696,-0.131v-0.85021h-0.8836v-0.23631h1.15844v1.17129c-0.04624,0.06422 -0.11815,0.131 -0.21062,0.19778z"/><path d="M578.47146,-19.75287c0.16696,0.08219 0.29026,0.19778 0.37501,0.34419c0.08476,0.14641 0.12843,0.3185 0.12843,0.51372c0,0.20292 -0.0411,0.37758 -0.12586,0.52143c-0.08476,0.14384 -0.21062,0.25429 -0.37501,0.33135c-0.16696,0.07706 -0.36732,0.11559 -0.60619,0.11559h-0.84249v1.34081h-0.27741v-3.29037h1.12248c0.23631,0 0.43666,0.0411 0.60105,0.12329zM578.49201,-18.36068c0.13613,-0.13357 0.20548,-0.30823 0.20548,-0.52657c0,-0.13871 -0.02825,-0.26713 -0.08733,-0.37758c-0.05908,-0.11302 -0.15155,-0.20292 -0.27484,-0.2697c-0.12329,-0.06678 -0.27998,-0.10018 -0.46748,-0.10018h-0.8425v1.47695h0.8425c0.27998,-0.00257 0.48803,-0.06936 0.62417,-0.20293z"/><path d="M581.52038,-19.63728h-1.12762v3.05407h-0.27483v-3.05407h-1.12762v-0.23631h1.40246h1.12762z"/></g><g fill="#fff6da" fill-rule="nonzero" stroke="none" stroke-width="1" stroke-linecap="butt"><path d="M584.17118,-17.29214h-0.36217v0.70636h-0.68325v-0.70636h-1.32797l-0.03339,-0.43153l1.35879,-2.15248h0.53941h0.14641v2.03433h0.36217zM583.12833,-17.83925v-1.10964l-0.04624,0.07963l-0.64986,1.03001z"/><path d="M584.85186,-17.23563c0.05908,0.03082 0.10532,0.07449 0.13613,0.131c0.03082,0.05651 0.04624,0.11559 0.04624,0.18494c0,0.06678 -0.01541,0.12843 -0.04624,0.18494c-0.03082,0.05394 -0.07706,0.09761 -0.13613,0.131c-0.05908,0.03082 -0.12587,0.04624 -0.20035,0.04624c-0.07448,0 -0.14127,-0.01541 -0.20035,-0.04624c-0.05908,-0.03082 -0.10274,-0.07449 -0.13357,-0.131c-0.03082,-0.05394 -0.0488,-0.11559 -0.0488,-0.18494c0,-0.06678 0.01541,-0.12843 0.0488,-0.18494c0.03339,-0.05651 0.07706,-0.09761 0.13357,-0.131c0.05651,-0.03339 0.12586,-0.0488 0.20035,-0.0488c0.07448,0.00257 0.14128,0.01798 0.20035,0.0488z"/><path d="M587.35368,-17.15088c-0.09247,0.20806 -0.2209,0.36216 -0.38786,0.46234c-0.16696,0.10018 -0.36474,0.14898 -0.59078,0.14898c-0.22604,0 -0.42638,-0.0488 -0.59334,-0.14898c-0.16696,-0.10018 -0.29796,-0.25429 -0.393,-0.46234c-0.09247,-0.20806 -0.14128,-0.47006 -0.14128,-0.78857v-0.58307c0,-0.31594 0.04624,-0.57794 0.13871,-0.78599c0.09247,-0.20806 0.22347,-0.36217 0.39043,-0.45978c0.16696,-0.09761 0.36474,-0.14898 0.59334,-0.14898c0.22861,0 0.42381,0.0488 0.59334,0.14898c0.16953,0.10018 0.29796,0.25429 0.39043,0.45978c0.09247,0.20806 0.13871,0.47005 0.13871,0.78599v0.58307c0,0.31594 -0.04624,0.57794 -0.13871,0.78857zM586.69869,-19.19548c-0.07448,-0.11559 -0.18237,-0.17467 -0.32878,-0.17467c-0.14641,0 -0.25429,0.05907 -0.32878,0.17467c-0.07448,0.11816 -0.11045,0.31079 -0.11045,0.5805v0.76544c0,0.27228 0.03597,0.46748 0.11302,0.58564c0.07448,0.11816 0.18494,0.17723 0.33135,0.17723c0.14384,0 0.25429,-0.05907 0.32621,-0.17723c0.07192,-0.11816 0.10789,-0.31337 0.10789,-0.58564v-0.76544c0,-0.2697 -0.03597,-0.46491 -0.11045,-0.5805z"/></g><g fill="#fff6da" stroke="none" stroke-width="1" stroke-linecap="butt"><path d="M572.30048,-21.39177l0.47282,-1.7543h0.62487l-0.75504,2.32888h-0.67262l-0.75504,-2.32888h0.62486z" fill-rule="nonzero"/><path d="M563.12269,-23.92527h0.64657v3.10808h-0.64657z" fill-rule="nonzero"/><path d="M564.40716,-23.92527h0.64657v3.10808h-0.64657z" fill-rule="nonzero"/><path d="M565.69152,-23.92527h1.91365v0.51801h-1.26708v0.74001h1.18031v0.51805h-1.18031v0.814h1.26708v0.51801h-1.91365z" fill-rule="nonzero"/><path d="M568,-23.92527h0.61184v3.10808h-0.61184z" fill-rule="nonzero"/><path d="M568.98069,-21.9838c0,-0.84883 0.42092,-1.21452 1.07616,-1.21452c0.65525,0 1.02844,0.36133 1.02844,1.22322v0.1393h-1.50144c0.0217,0.50495 0.17358,0.67473 0.46433,0.67473c0.22996,0 0.37316,-0.13495 0.39922,-0.37001h0.61184c-0.03905,0.51366 -0.46428,0.76614 -1.01106,0.76614c-0.69429,0 -1.06749,-0.37 -1.06749,-1.21887zM570.48213,-22.24063c-0.03038,-0.42661 -0.17793,-0.56588 -0.43395,-0.56588c-0.25602,0 -0.41661,0.14362 -0.45997,0.56588z" fill-rule="nonzero"/><path d="M573.51534,-21.9838c0,-0.84883 0.42092,-1.21452 1.07617,-1.21452c0.65525,0 1.02844,0.36133 1.02844,1.22322v0.1393h-1.50144c0.0217,0.50495 0.17357,0.67473 0.46432,0.67473c0.22996,0 0.37316,-0.13495 0.39922,-0.37001h0.61184c-0.03905,0.51366 -0.46432,0.76614 -1.01106,0.76614c-0.69433,0 -1.06749,-0.37 -1.06749,-1.21887zM575.01675,-22.24063c-0.03038,-0.42661 -0.1779,-0.56588 -0.43392,-0.56588c-0.25602,0 -0.41661,0.14362 -0.45997,0.56588z" fill-rule="nonzero"/><path d="M578.51854,-23.92527h0.64657v2.59007h1.21501v0.51801h-1.86158z" fill-rule="nonzero"/><path d="M580.53203,-21.9838c0,-0.88802 0.40789,-1.21452 0.93296,-1.21452c0.26034,0 0.49902,0.14801 0.5945,0.30473v-0.25248h0.62487v2.32888h-0.60752v-0.27425c-0.09113,0.18285 -0.34715,0.3265 -0.62923,0.3265c-0.55541,0 -0.91558,-0.35694 -0.91558,-1.21887zM581.62554,-22.74123c0.30375,0 0.46864,0.2307 0.46864,0.75743c0,0.52672 -0.1649,0.76178 -0.46864,0.76178c-0.30375,0 -0.47732,-0.23505 -0.47732,-0.76178c0,-0.52672 0.17357,-0.75743 0.47732,-0.75743z" fill-rule="evenodd"/><path d="M583.76484,-21.09143v0.27425h-0.60749v-3.10808h0.61184v1.03167c0.10415,-0.16107 0.34715,-0.30473 0.60753,-0.30473c0.51204,0 0.91994,0.3265 0.91994,1.21452c0,0.88806 -0.39922,1.21887 -0.93297,1.21887c-0.28204,0 -0.51204,-0.14365 -0.59884,-0.3265zM584.20314,-22.73687c0.30375,0 0.47731,0.22635 0.47731,0.75307c0,0.52672 -0.17357,0.76178 -0.47731,0.76178c-0.30378,0 -0.46867,-0.23505 -0.46867,-0.76178c0,-0.52672 0.1649,-0.75307 0.46867,-0.75307z" fill-rule="evenodd"/><path d="M585.54836,-21.50929h0.61184c0.00868,0.24376 0.13885,0.36129 0.36885,0.36129c0.22996,0 0.36017,-0.10446 0.36017,-0.28731c0,-0.16542 -0.09979,-0.22635 -0.31677,-0.2786l-0.1866,-0.04786c-0.52939,-0.13494 -0.79412,-0.27859 -0.79412,-0.71827c0,-0.43968 0.40793,-0.71828 0.92865,-0.71828c0.52072,0 0.91558,0.20462 0.93296,0.6878h-0.61187c-0.01299,-0.21329 -0.1432,-0.30469 -0.32977,-0.30469c-0.1866,0 -0.31677,0.0914 -0.31677,0.26554c0,0.16103 0.10411,0.222 0.28639,0.26554l0.19092,0.04786c0.50337,0.12624 0.82015,0.25248 0.82015,0.72263c0,0.47011 -0.41657,0.74872 -0.98069,0.74872c-0.61188,0 -0.95035,-0.2307 -0.96334,-0.74436z" fill-rule="nonzero"/><path d="M576.60931,-20.81718h-0.62051v-2.32888h0.62051v0.30037c0.10851,-0.20026 0.35582,-0.35262 0.65525,-0.35262c0.44262,0 0.74636,0.24816 0.74636,0.78791v1.59323h-0.61184v-1.49743c0,-0.30037 -0.12585,-0.43968 -0.34714,-0.43968c-0.26905,0 -0.44263,0.20026 -0.44263,0.56591z" fill-rule="nonzero"/></g><text transform="translate(505.10818,-21.05009) scale(0.13603,0.13603)" font-size="40" xml:space="preserve" fill="#fff6da" fill-rule="nonzero" stroke="none" stroke-width="1" stroke-linecap="butt" font-family="&quot;Ubuntu-Bold&quot;, Sans Serif" font-weight="normal" text-anchor="start"><tspan x="0" dy="0">Technologies Used</tspan></text><path d="M556.88268,-16.70515v-12.18688" fill="#fff6da" fill-rule="nonzero" stroke="#fff6da" stroke-width="1" stroke-linecap="round"/></g><path d="M397.33943,133.44922v-101.67261h221.921v101.67261z" fill="#ffc400" fill-rule="nonzero" stroke="#000000" stroke-width="0" stroke-linecap="butt"/><text transform="translate(398.28931,45.39083) scale(0.36224,0.36224)" font-size="40" xml:space="preserve" fill="#fff6da" fill-rule="nonzero" stroke="none" stroke-width="1" stroke-linecap="butt" font-family="&quot;LeagueSpartan-Bold&quot;, Sans Serif" font-weight="normal" text-anchor="start"><tspan x="0" dy="0">Pigeon of Hope Highest Score</tspan></text><text transform="translate(203.55183,353.72308) scale(0.2471,0.2471)" font-size="40" xml:space="preserve" fill="#ffc400" fill-rule="nonzero" stroke="none" stroke-width="1" stroke-linecap="butt" font-family="&quot;LeagueSpartan-Bold&quot;, Sans Serif" font-weight="normal" text-anchor="start"><tspan x="0" dy="0">Charity selections are made via Social Media.</tspan></text><text transform="translate(368.69148,129.2008) scale(0.5,0.5)" font-size="40" xml:space="preserve" fill="#ffc400" fill-rule="nonzero" stroke="none" stroke-width="1" stroke-linecap="butt" font-family="&quot;LeagueSpartan-Bold&quot;, Sans Serif" font-weight="normal" text-anchor="start"><tspan x="0" dy="0"> </tspan></text></g></g></svg>