<svg version="1.1" xmlns="http://www.w3.org/2000/svg" xmlns:xlink="http://www.w3.org/1999/xlink" width="47.73162" height="34.09401" viewBox="0,0,47.73162,34.09401"><g transform="translate(-296.13419,-162.95299)"><g stroke-miterlimit="10"><path d="M296.13419,197.04701v-34.09401h47.73162v34.09401z" fill="none" stroke="#000000" stroke-width="0"/><path d="M314.44673,181.30974c0.93112,-0.65641 2.36165,-1.95327 3.2839,-3.55321c0.72393,-1.25588 0.94104,-2.76005 1.66075,-3.87317c0.41124,-0.63603 1.33143,-1.80117 2.46138,-2.46062c0.35793,-0.20889 3.6072,-1.46336 5.34492,-0.67866c3.38892,1.53032 6.1065,5.96327 5.98731,7.0363c-0.10111,0.91022 -1.322,2.39981 -2.58292,4.20827c-0.65198,0.9351 -0.87912,2.29898 -1.65101,3.24292c-1.21383,1.4844 -3.0655,2.47067 -4.6175,3.2451c-4.40234,2.19675 -9.07903,0.26971 -10.374,-0.10236c-1.7137,-0.49237 -7.14834,-4.26335 -7.14834,-4.26335c0,0 6.21672,-1.80107 7.63549,-2.80124z" fill="#ffffff" stroke="none" stroke-width="0.5"/><path d="M319.50314,190.46807c-3.15151,0 -6.48707,-0.86203 -9.02199,-2.34522c-2.5717,-1.50481 -4.24744,-2.86242 -5.20038,-3.73634c-0.34367,-0.31526 -0.36686,-0.84945 -0.0516,-1.1931c0.31497,-0.3436 0.84932,-0.36692 1.1931,-0.0516c0.89231,0.81828 2.46885,2.0938 4.91182,3.52339c4.2878,2.50886 12.68248,3.69939 17.08326,-1.7133c0.84979,-1.04494 1.17929,-1.89425 1.52811,-2.79355c0.46378,-1.19557 0.98069,-2.52835 2.69901,-4.34794c-0.21963,-0.14776 -0.40749,-0.32949 -0.52177,-0.55175c-0.06934,-0.13505 -0.14489,-0.28761 -0.22724,-0.45425c-0.96523,-1.95137 -2.76169,-5.58363 -6.92626,-5.58363c-2.2422,0 -4.17318,1.44072 -5.73929,4.28193c-0.22512,0.40844 -0.73905,0.55702 -1.14719,0.33196c-0.40844,-0.22513 -0.55707,-0.73881 -0.33196,-1.14719c1.88566,-3.42102 4.31433,-5.15562 7.21838,-5.15562c2.26053,0 4.22519,0.85436 5.8398,2.53919c1.30105,1.35779 2.0829,2.93856 2.60034,3.98455c0.06344,0.1282 0.12246,0.24767 0.17768,0.35661c0.14009,0.09113 0.50331,0.2188 0.74766,0.27409c0.30543,0.06905 0.54754,0.30149 0.62912,0.60376c0.08159,0.30232 -0.01095,0.62497 -0.24035,0.83831c-2.19488,2.04096 -2.68479,3.30383 -3.20351,4.64078c-0.38074,0.98169 -0.7746,1.99681 -1.79224,3.24825c-2.85493,3.51132 -6.84919,4.35398 -9.69738,4.44259c-0.17476,0.00539 -0.3508,0.00808 -0.52715,0.00808z" fill="#000000" stroke="none" stroke-width="1"/><path d="M327.55386,177.71718h-0.67556c-0.46631,0 -0.84447,-0.37804 -0.84447,-0.84447c0,-0.46642 0.37816,-0.84447 0.84447,-0.84447h0.67556c0.46631,0 0.84447,0.37804 0.84447,0.84447c0,0.46642 -0.37811,0.84447 -0.84447,0.84447z" fill="#000000" stroke="none" stroke-width="1"/><path d="M305.68556,184.61435c-0.45724,-0.09182 -0.75362,-0.53685 -0.6618,-0.99408c0.09161,-0.45703 0.53671,-0.82454 0.99408,-0.73273c1.2128,0.08362 10.59389,-0.74014 11.55701,-7.64929c0.1861,-1.33394 1.92121,-1.33848 1.6984,0.25903c-0.27739,1.98989 -0.99025,3.25822 -1.7919,4.27506c-1.00402,1.27356 -2.2059,2.10868 -3.53537,2.97071c-2.39095,1.55027 -6.99269,2.12569 -8.26041,1.87129z" fill="#000000" stroke="none" stroke-width="1"/></g></g></svg>