<svg version="1.1" xmlns="http://www.w3.org/2000/svg" xmlns:xlink="http://www.w3.org/1999/xlink" width="121.43472" height="42.99115" viewBox="0,0,121.43472,42.99115"><g transform="translate(-518.56528,-317.00886)"><g stroke-miterlimit="10"><path d="M589.7826,352.12173c0.98654,0 1.78634,-0.79331 1.78634,-1.77181c0,-0.9785 -0.7998,-1.77193 -1.78634,-1.77193h0.2691c0.98654,0 1.78633,0.79343 1.78633,1.77193c0,0.9785 -0.79979,1.77181 -1.78633,1.77181z" fill="#ee1d51" fill-rule="evenodd" stroke="none" stroke-width="1"/><path d="M570.01917,354.7155c-3.83705,0 -6.9476,-3.11055 -6.9476,-6.9476v-18.52693c0,-3.83705 3.11054,-6.9476 6.9476,-6.9476h18.52693c3.83705,0 6.94759,3.11055 6.94759,6.9476v18.52693c0,3.83705 -3.11055,6.94761 -6.94759,6.94761z" fill="#000000" fill-rule="nonzero" stroke="none" stroke-width="1"/><path d="M583.97327,335.44845v7.37072c0,3.68743 -2.99074,6.67636 -6.67999,6.67636c-1.8714,0 -3.56294,-0.76905 -4.77591,-2.00862c1.0628,0.71328 2.34217,1.1292 3.71856,1.1292c3.68899,0 6.67962,-2.98894 6.67962,-6.67624v-7.37084c1.4197,1.01403 3.15831,1.61073 5.03607,1.61073v-2.84316c0.34771,0.07369 0.70218,0.11076 1.05761,0.11063v3.61195c-1.87789,0 -3.61676,-0.59669 -5.03607,-1.61073zM582.9709,328.39261h1.00223v0.46454c0.10311,1.13166 0.57932,2.15529 1.30467,2.9473c-1.19417,-0.7448 -2.05465,-1.9736 -2.3069,-3.41184zM573.16982,341.92951c0,-1.6866 1.36783,-3.05391 3.05547,-3.05391c0.3146,-0.00023 0.62736,0.04804 0.92728,0.14305v-2.87416c0.35346,-0.00748 0.70695,0.01286 1.05722,0.06082v3.69262c-0.29978,-0.09501 -0.6124,-0.14327 -0.92688,-0.14305c-1.68764,0 -3.05559,1.36732 -3.05559,3.05378c-0.00098,0.66802 0.21807,1.31776 0.62328,1.84884c-0.99704,-0.50293 -1.68077,-1.53551 -1.68077,-2.728z" fill="#ee1d52" fill-rule="evenodd" stroke="none" stroke-width="1"/><path d="M582.91553,341.94001c0,3.68718 -2.99062,6.67623 -6.67961,6.67623c-1.37638,0 -2.65576,-0.41591 -3.71856,-1.1292c-1.17796,-1.20351 -1.90383,-2.85082 -1.90383,-4.66788c0,-3.64009 2.91475,-6.59984 6.5389,-6.67467v2.87416c-0.29232,-0.09273 -0.60395,-0.14305 -0.92727,-0.14305c-1.68764,0 -3.05547,1.3673 -3.05547,3.0539c0,1.19248 0.68372,2.22507 1.68076,2.728c0.55831,0.73235 1.43993,1.20506 2.43231,1.20506c1.684,0 3.04962,-1.36173 3.05559,-3.04353v-14.42642h2.63255c0.25225,1.43824 1.11272,2.66704 2.3069,3.41184c0.69773,0.76153 1.62565,1.30907 2.6738,1.53214v2.84316c-1.87776,0 -3.61637,-0.5967 -5.03607,-1.61074z" fill="#ffffff" fill-rule="evenodd" stroke="none" stroke-width="1"/><path d="M585.2778,331.80431c0.80197,0.50033 1.72855,0.7649 2.6738,0.76348v0.76879c-1.02911,-0.21977 -1.96391,-0.75546 -2.6738,-1.53227zM580.33835,328.39261v14.42642c-0.00597,1.6818 -1.37171,3.04353 -3.05559,3.04353c-0.99238,0 -1.874,-0.47272 -2.43231,-1.20506c0.41345,0.20853 0.8802,0.32577 1.3747,0.32577c1.68413,0 3.04962,-1.36172 3.05546,-3.04339v-14.42654h3.63491v0.46454c0.0128,0.13894 0.03129,0.27731 0.05538,0.41474zM570.61366,342.81904c0,1.81706 0.72587,3.46436 1.90383,4.66787c-1.78607,-1.19833 -2.96143,-3.23547 -2.96143,-5.54703c0,-3.68691 2.99061,-6.67597 6.67999,-6.67597c0.30656,-0.00016 0.61278,0.02059 0.91651,0.06212v0.81847c-3.62427,0.07484 -6.5389,3.03458 -6.5389,6.67455z" fill="#69c9d0" fill-rule="evenodd" stroke="none" stroke-width="1"/><path d="M518.56528,360.00001v-42.99115h121.43472v42.99115z" fill="none" fill-rule="nonzero" stroke="#000000" stroke-width="0"/></g></g></svg>