<svg version="1.1" xmlns="http://www.w3.org/2000/svg" xmlns:xlink="http://www.w3.org/1999/xlink" width="47.73162" height="34.09401" viewBox="0,0,47.73162,34.09401"><g transform="translate(-296.13419,-162.953)"><g stroke-miterlimit="10"><path d="M296.13419,197.04701v-34.09401h47.73162v34.09401z" fill="none" stroke="#000000" stroke-width="0"/><path d="M307.00789,172.4442c0,0 6.22541,-1.83698 10.07462,1.03334c2.02862,1.51271 2.99235,4.03106 3.45023,6.07489c0.4217,1.88239 -0.92897,3.69368 -2.85349,3.82658c-2.08946,0.1443 -4.77818,-0.06099 -6.80679,-1.57371c-3.84915,-2.87031 -3.86458,-9.36111 -3.86458,-9.36111z" fill="#000000" stroke="none" stroke-width="1"/><path d="M316.68853,184.44001c-0.00017,0 -0.00033,0 -0.0005,0c-2.62054,0 -4.77605,-0.6166 -6.40675,-1.83265c-4.26803,-3.18272 -4.33339,-10.06604 -4.33406,-10.35756c-0.0009,-0.35711 0.2339,-0.67211 0.57651,-0.77322c0.08773,-0.02588 2.17693,-0.63374 4.75675,-0.63374c2.62043,0 4.77605,0.6166 6.40682,1.83276c2.34909,1.75168 3.40909,4.65023 3.88465,6.77335c0.2599,1.16016 0.00201,2.37131 -0.70756,3.32293c-0.70958,0.95164 -1.7969,1.54437 -2.98305,1.62624c-0.40301,0.02783 -0.80429,0.04189 -1.19279,0.04189zM307.58526,172.86896c0.11924,1.66767 0.71321,6.25356 3.65738,8.44905c1.34688,1.00438 3.17898,1.5137 5.44537,1.5137c0.00006,0 0.00022,0 0.00033,0c0.35175,0 0.71577,-0.01278 1.08225,-0.03809c0.71777,-0.04964 1.37544,-0.40797 1.80438,-0.98325c0.42895,-0.57523 0.58476,-1.3079 0.4275,-2.00989c-0.41622,-1.85787 -1.32246,-4.37836 -3.27663,-5.83555c-1.34693,-1.00451 -3.1791,-1.51376 -5.44542,-1.51376c-1.55653,-0.00006 -2.93933,0.24941 -3.69514,0.41778z" fill="#000000" stroke="none" stroke-width="1"/><path d="M316.83281,184.78065c-0.00018,0 -0.00034,0 -0.00052,0c-2.75184,0 -5.01537,-0.64751 -6.72778,-1.92448c-4.48189,-3.34219 -4.55052,-10.57041 -4.55123,-10.87654c-0.00094,-0.375 0.24563,-0.70578 0.6054,-0.81196c0.09212,-0.02717 2.28602,-0.66549 4.9951,-0.66549c2.75173,0 5.01537,0.64751 6.72784,1.9246c2.4668,1.83944 3.57992,4.88324 4.07931,7.11273c0.27292,1.2183 0.00211,2.49011 -0.74302,3.48942c-0.74513,0.9993 -1.88694,1.62176 -3.13252,1.70772c-0.42321,0.02922 -0.84459,0.04398 -1.25255,0.04398zM307.27342,172.62984c0.12522,1.75124 0.74894,6.5669 3.84065,8.87241c1.41437,1.05471 3.33826,1.58954 5.71821,1.58954c0.00007,0 0.00023,0 0.00034,0c0.36937,0 0.75163,-0.01341 1.13647,-0.04c0.75374,-0.05212 1.44436,-0.42841 1.89479,-1.03253c0.45044,-0.60405 0.61407,-1.37344 0.44891,-2.11061c-0.43709,-1.95096 -1.38872,-4.59773 -3.44082,-6.12795c-1.41443,-1.05483 -3.33838,-1.5896 -5.71827,-1.5896c-1.63452,-0.00007 -3.08661,0.26191 -3.88029,0.43871z" fill="#ffffff" stroke="#000000" stroke-width="0"/></g></g></svg>