<svg version="1.1" xmlns="http://www.w3.org/2000/svg" xmlns:xlink="http://www.w3.org/1999/xlink" width="121.43472" height="42.99115" viewBox="0,0,121.43472,42.99115"><defs><radialGradient cx="536.11682" cy="346.60997" r="29.54999" gradientUnits="userSpaceOnUse" id="color-1"><stop offset="0" stop-color="#b13589"/><stop offset="0.79309" stop-color="#c62f94"/><stop offset="1" stop-color="#8a3ac8"/></radialGradient><radialGradient cx="534.9589" cy="355.87343" r="26.16257" gradientUnits="userSpaceOnUse" id="color-2"><stop offset="0" stop-color="#e0e8b7"/><stop offset="0.44466" stop-color="#fb8a2e"/><stop offset="0.71474" stop-color="#e2425c"/><stop offset="1" stop-color="#e2425c" stop-opacity="0"/></radialGradient><radialGradient cx="522.8006" cy="323.45129" r="45.03305" gradientUnits="userSpaceOnUse" id="color-3"><stop offset="0.1567" stop-color="#406adc"/><stop offset="0.4678" stop-color="#6a45be"/><stop offset="1" stop-color="#6a45be" stop-opacity="0"/></radialGradient></defs><g transform="translate(-518.56528,-317.00886)"><g stroke-miterlimit="10"><path d="M531.4851,354.7155c-3.83705,0 -6.9476,-3.11055 -6.9476,-6.9476v-18.52693c0,-3.83705 3.11055,-6.9476 6.9476,-6.9476h18.52693c3.83705,0 6.94761,3.11055 6.94761,6.9476v18.52693c0,3.83705 -3.11055,6.94761 -6.9476,6.94761z" fill="url(#color-1)" fill-rule="nonzero" stroke="none" stroke-width="1"/><path d="M531.4851,354.7155c-3.83705,0 -6.9476,-3.11055 -6.9476,-6.9476v-18.52693c0,-3.83705 3.11055,-6.9476 6.9476,-6.9476h18.52693c3.83705,0 6.94761,3.11055 6.94761,6.9476v18.52693c0,3.83705 -3.11055,6.94761 -6.9476,6.94761z" fill="url(#color-2)" fill-rule="nonzero" stroke="none" stroke-width="1"/><path d="M531.4851,354.7155c-3.83705,0 -6.9476,-3.11055 -6.9476,-6.9476v-18.52693c0,-3.83705 3.11055,-6.9476 6.9476,-6.9476h18.52693c3.83705,0 6.94761,3.11055 6.94761,6.9476v18.52693c0,3.83705 -3.11055,6.94761 -6.9476,6.94761z" fill="url(#color-3)" fill-rule="nonzero" stroke="none" stroke-width="1"/><path d="M548.85409,332.13579c0,0.95923 -0.77768,1.7369 -1.73691,1.7369c-0.95923,0 -1.7369,-0.77767 -1.7369,-1.7369c0,-0.95927 0.77767,-1.7369 1.7369,-1.7369c0.95923,0 1.73691,0.77763 1.73691,1.7369z" fill="#ffffff" fill-rule="nonzero" stroke="none" stroke-width="1"/><path d="M534.9589,338.50444c0,-3.19752 2.59215,-5.78967 5.78967,-5.78967c3.19751,0 5.78966,2.59215 5.78966,5.78967c0,3.19752 -2.59215,5.78966 -5.78966,5.78966c-3.19751,0 -5.78966,-2.59215 -5.78966,-5.78966zM537.27476,338.50444c0,-1.91859 1.55522,-3.4738 3.4738,-3.4738c1.91859,0 3.47379,1.55521 3.47379,3.4738c0,1.91859 -1.55521,3.47381 -3.47379,3.47381c-1.91859,0 -3.4738,-1.55522 -3.4738,-3.47381z" fill="#ffffff" fill-rule="evenodd" stroke="none" stroke-width="1"/><path d="M529.16923,338.04126c0,-3.891 0,-5.83657 0.75724,-7.3227c0.6661,-1.30728 1.72893,-2.37013 3.03621,-3.03621c1.48613,-0.75725 3.4317,-0.75724 7.3227,-0.75724h0.92634c3.891,0 5.83657,0 7.32266,0.75724c1.30731,0.66609 2.37016,1.72894 3.03621,3.03622c0.75729,1.48613 0.75729,3.43169 0.75729,7.3227v0.92634c0,3.89101 0,5.83657 -0.75729,7.32266c-0.66604,1.30731 -1.7289,2.37017 -3.03621,3.03621c-1.48609,0.75729 -3.43166,0.75729 -7.32266,0.75729h-0.92634c-3.891,0 -5.83656,0 -7.32269,-0.75729c-1.30728,-0.66604 -2.37014,-1.7289 -3.03622,-3.03621c-0.75725,-1.48609 -0.75724,-3.43166 -0.75724,-7.32266zM540.28539,329.24096h0.92634c1.98377,0 3.33218,0.00181 4.37455,0.08696c1.0154,0.08296 1.53461,0.23332 1.89681,0.41787c0.87146,0.44407 1.58,1.15262 2.02406,2.02409c0.18457,0.3622 0.33499,0.88142 0.4179,1.8968c0.0851,1.04237 0.08695,2.39079 0.08695,4.37456v0.92634c0,1.98377 -0.00185,3.33219 -0.08695,4.37456c-0.08291,1.0154 -0.23333,1.5346 -0.4179,1.8968c-0.44407,0.87146 -1.1526,1.58 -2.02406,2.02407c-0.3622,0.18457 -0.88143,0.33499 -1.89681,0.4179c-1.04237,0.0851 -2.39078,0.08695 -4.37455,0.08695h-0.92634c-1.98377,0 -3.33219,-0.00185 -4.37456,-0.08695c-1.01539,-0.08291 -1.53461,-0.23333 -1.89681,-0.4179c-0.87148,-0.44407 -1.58003,-1.1526 -2.0241,-2.02407c-0.18456,-0.3622 -0.33491,-0.88142 -0.41786,-1.8968c-0.08515,-1.04237 -0.08696,-2.39079 -0.08696,-4.37456v-0.92634c0,-1.98377 0.00181,-3.33219 0.08696,-4.37456c0.08295,-1.01538 0.23332,-1.5346 0.41786,-1.8968c0.44407,-0.87147 1.15262,-1.58003 2.0241,-2.02409c0.3622,-0.18455 0.88142,-0.33492 1.89681,-0.41787c1.04237,-0.08515 2.39079,-0.08696 4.37456,-0.08696z" fill="#ffffff" fill-rule="evenodd" stroke="none" stroke-width="1"/><path d="M588.90163,350.34992c0,-0.47581 0.38897,-0.86152 0.86879,-0.86152c0.47982,0 0.86878,0.38571 0.86878,0.86152c0,0.47581 -0.38896,0.86152 -0.86878,0.86152c-0.47982,0 -0.86879,-0.38572 -0.86879,-0.86152z" fill="#010101" fill-rule="evenodd" stroke="none" stroke-width="1"/><path d="M518.56528,360.00001v-42.99115h121.43472v42.99115z" fill="none" fill-rule="nonzero" stroke="#000000" stroke-width="0"/></g></g></svg>