<svg version="1.1" xmlns="http://www.w3.org/2000/svg" xmlns:xlink="http://www.w3.org/1999/xlink" width="121.43472" height="42.99115" viewBox="0,0,121.43472,42.99115"><g transform="translate(-518.56528,-317.00885)"><g stroke-miterlimit="10"><path d="M608.55323,354.71548c-3.83705,0 -6.9476,-3.11054 -6.9476,-6.9476v-18.52693c0,-3.83705 3.11055,-6.9476 6.9476,-6.9476h18.52693c3.83705,0 6.9476,3.11055 6.9476,6.9476v18.52693c0,3.83705 -3.11054,6.9476 -6.9476,6.9476z" fill="#000000" stroke="none" stroke-width="1"/><path d="M622.12616,331.73135h2.29787l-5.02007,5.73831l5.90563,7.8078h-4.62437l-3.62176,-4.73507l-4.14469,4.73507h-2.29914l5.36933,-6.1372l-5.66515,-7.40892h4.74142l3.27377,4.32855zM621.31948,343.90206h1.27362l-8.2194,-10.86718h-1.36651z" fill="#ffffff" stroke="none" stroke-width="1"/><path d="M518.56528,360v-42.99115h121.43472v42.99115z" fill="none" stroke="#000000" stroke-width="0"/></g></g></svg>